Nobel-Condensed_Black.ufo
<glyph name="exclam" format="1">
  <advance width="269"/>
  <unicode hex="0021"/>
  <outline>
    <contour>
      <point x="236" y="508" type="line"/>
      <point x="199" y="252" type="line"/>
      <point x="69" y="252" type="line"/>
      <point x="33" y="508" type="line"/>
      <point x="33" y="730" type="line"/>
      <point x="236" y="730" type="line"/>
    </contour>
    <contour>
      <point x="236" y="0" type="line"/>
      <point x="33" y="0" type="line"/>
      <point x="33" y="189" type="line"/>
      <point x="236" y="189" type="line"/>
    </contour>
  </outline>
</glyph>
<glyph name="quotedbl" format="1">
  <advance width="457"/>
  <unicode hex="0022"/>
  <outline>
    <contour>
      <point x="426" y="583" type="line"/>
      <point x="391" y="411" type="line"/>
      <point x="287" y="411" type="line"/>
      <point x="252" y="583" type="line"/>
      <point x="252" y="730" type="line"/>
      <point x="426" y="730" type="line"/>
    </contour>
    <contour>
      <point x="205" y="583" type="line"/>
      <point x="170" y="411" type="line"/>
      <point x="66" y="411" type="line"/>
      <point x="31" y="583" type="line"/>
      <point x="31" y="730" type="line"/>
      <point x="205" y="730" type="line"/>
    </contour>
  </outline>
</glyph>
<glyph name="numbersign" format="1">
  <advance width="584"/>
  <unicode hex="0023"/>
  <outline>
    <contour>
      <point x="550" y="122" type="line"/>
      <point x="438" y="122" type="line"/>
      <point x="427" y="0" type="line"/>
      <point x="316" y="0" type="line"/>
      <point x="327" y="122" type="line"/>
      <point x="215" y="122" type="line"/>
      <point x="204" y="0" type="line"/>
      <point x="93" y="0" type="line"/>
      <point x="104" y="122" type="line"/>
      <point x="34" y="122" type="line"/>
      <point x="34" y="298" type="line"/>
      <point x="119" y="298" type="line"/>
      <point x="131" y="431" type="line"/>
      <point x="34" y="431" type="line"/>
      <point x="34" y="607" type="line"/>
      <point x="146" y="607" type="line"/>
      <point x="157" y="730" type="line"/>
      <point x="268" y="730" type="line"/>
      <point x="257" y="607" type="line"/>
      <point x="369" y="607" type="line"/>
      <point x="380" y="730" type="line"/>
      <point x="491" y="730" type="line"/>
      <point x="480" y="607" type="line"/>
      <point x="550" y="607" type="line"/>
      <point x="550" y="431" type="line"/>
      <point x="465" y="431" type="line"/>
      <point x="453" y="298" type="line"/>
      <point x="550" y="298" type="line"/>
    </contour>
    <contour>
      <point x="357" y="434" type="line"/>
      <point x="239" y="434" type="line"/>
      <point x="227" y="295" type="line"/>
      <point x="345" y="295" type="line"/>
    </contour>
  </outline>
</glyph>
<glyph name="dollar" format="1">
  <advance width="460"/>
  <unicode hex="0024"/>
  <outline>
    <contour>
      <point x="441" y="204" type="curve" smooth="yes"/>
      <point x="441" y="94"/>
      <point x="371" y="19"/>
      <point x="273" y="2" type="curve"/>
      <point x="273" y="-71" type="line"/>
      <point x="175" y="-71" type="line"/>
      <point x="175" y="3" type="line"/>
      <point x="103" y="16"/>
      <point x="49" y="58"/>
      <point x="10" y="116" type="curve"/>
      <point x="121" y="235" type="line"/>
      <point x="161" y="179"/>
      <point x="188" y="156"/>
      <point x="217" y="156" type="curve" smooth="yes"/>
      <point x="238" y="156"/>
      <point x="252" y="165"/>
      <point x="252" y="190" type="curve" smooth="yes"/>
      <point x="252" y="218"/>
      <point x="233" y="237"/>
      <point x="176" y="289" type="curve" smooth="yes"/>
      <point x="84" y="371"/>
      <point x="26" y="434"/>
      <point x="26" y="537" type="curve" smooth="yes"/>
      <point x="26" y="624"/>
      <point x="74" y="705"/>
      <point x="179" y="726" type="curve"/>
      <point x="179" y="779" type="line"/>
      <point x="277" y="779" type="line"/>
      <point x="277" y="729" type="line"/>
      <point x="347" y="717"/>
      <point x="394" y="677"/>
      <point x="427" y="630" type="curve"/>
      <point x="319" y="515" type="line"/>
      <point x="287" y="557"/>
      <point x="268" y="574"/>
      <point x="244" y="574" type="curve" smooth="yes"/>
      <point x="224" y="574"/>
      <point x="214" y="564"/>
      <point x="214" y="547" type="curve" smooth="yes"/>
      <point x="214" y="525"/>
      <point x="227" y="510"/>
      <point x="283" y="461" type="curve" smooth="yes"/>
      <point x="379" y="379"/>
      <point x="441" y="312"/>
    </contour>
  </outline>
</glyph>
<glyph name="ampersand" format="1">
  <advance width="550"/>
  <unicode hex="0026"/>
  <outline>
    <contour>
      <point x="551" y="0" type="line"/>
      <point x="359" y="0" type="line"/>
      <point x="335" y="42" type="line"/>
      <point x="288" y="8"/>
      <point x="242" y="-8"/>
      <point x="201" y="-8" type="curve" smooth="yes"/>
      <point x="84" y="-8"/>
      <point x="15" y="57"/>
      <point x="15" y="173" type="curve" smooth="yes"/>
      <point x="15" y="259"/>
      <point x="56" y="323"/>
      <point x="137" y="395" type="curve"/>
      <point x="96" y="469"/>
      <point x="82" y="524"/>
      <point x="82" y="584" type="curve" smooth="yes"/>
      <point x="82" y="664"/>
      <point x="142" y="742"/>
      <point x="247" y="742" type="curve" smooth="yes"/>
      <point x="356" y="742"/>
      <point x="402" y="675"/>
      <point x="402" y="588" type="curve" smooth="yes"/>
      <point x="402" y="514"/>
      <point x="366" y="459"/>
      <point x="306" y="399" type="curve"/>
      <point x="371" y="293" type="line"/>
      <point x="390" y="327"/>
      <point x="411" y="367"/>
      <point x="434" y="416" type="curve"/>
      <point x="536" y="277" type="line"/>
      <point x="509" y="232"/>
      <point x="482" y="192"/>
      <point x="454" y="158" type="curve"/>
    </contour>
    <contour>
      <point x="269" y="582" type="curve" smooth="yes"/>
      <point x="269" y="617"/>
      <point x="260" y="633"/>
      <point x="247" y="633" type="curve" smooth="yes"/>
      <point x="233" y="633"/>
      <point x="223" y="619"/>
      <point x="223" y="592" type="curve" smooth="yes"/>
      <point x="223" y="563"/>
      <point x="231" y="531"/>
      <point x="247" y="497" type="curve"/>
      <point x="263" y="522"/>
      <point x="269" y="548"/>
    </contour>
    <contour>
      <point x="268" y="161" type="curve"/>
      <point x="206" y="271" type="line"/>
      <point x="198" y="248"/>
      <point x="195" y="228"/>
      <point x="195" y="213" type="curve" smooth="yes"/>
      <point x="195" y="169"/>
      <point x="208" y="147"/>
      <point x="237" y="147" type="curve" smooth="yes"/>
      <point x="245" y="147"/>
      <point x="255" y="151"/>
    </contour>
  </outline>
</glyph>
<glyph name="quotesingle" format="1">
  <advance width="241"/>
  <unicode hex="0027"/>
  <outline>
    <contour>
      <point x="210" y="583" type="line"/>
      <point x="175" y="411" type="line"/>
      <point x="66" y="411" type="line"/>
      <point x="31" y="583" type="line"/>
      <point x="31" y="730" type="line"/>
      <point x="210" y="730" type="line"/>
    </contour>
  </outline>
</glyph>
<glyph name="parenleft" format="1">
  <advance width="355"/>
  <unicode hex="0028"/>
  <outline>
    <contour>
      <point x="329" y="-179" type="line"/>
      <point x="131" y="-87"/>
      <point x="30" y="58"/>
      <point x="30" y="281" type="curve" smooth="yes"/>
      <point x="30" y="504"/>
      <point x="131" y="650"/>
      <point x="329" y="742" type="curve"/>
      <point x="329" y="631" type="line"/>
      <point x="247" y="526"/>
      <point x="223" y="413"/>
      <point x="223" y="282" type="curve" smooth="yes"/>
      <point x="223" y="151"/>
      <point x="247" y="37"/>
      <point x="329" y="-68" type="curve"/>
    </contour>
  </outline>
</glyph>
<glyph name="parenright" format="1">
  <advance width="355"/>
  <unicode hex="0029"/>
  <outline>
    <contour>
      <point x="325" y="281" type="curve" smooth="yes"/>
      <point x="325" y="58"/>
      <point x="224" y="-87"/>
      <point x="26" y="-179" type="curve"/>
      <point x="26" y="-68" type="line"/>
      <point x="108" y="37"/>
      <point x="132" y="151"/>
      <point x="132" y="282" type="curve" smooth="yes"/>
      <point x="132" y="413"/>
      <point x="108" y="526"/>
      <point x="26" y="631" type="curve"/>
      <point x="26" y="742" type="line"/>
      <point x="224" y="650"/>
      <point x="325" y="504"/>
    </contour>
  </outline>
</glyph>
<glyph name="asterisk" format="1">
  <advance width="450"/>
  <unicode hex="002A"/>
  <outline>
    <contour>
      <point x="440" y="550" type="line"/>
      <point x="328" y="485" type="line"/>
      <point x="380" y="366" type="line"/>
      <point x="322" y="325" type="line"/>
      <point x="225" y="410" type="line"/>
      <point x="128" y="325" type="line"/>
      <point x="70" y="366" type="line"/>
      <point x="122" y="485" type="line"/>
      <point x="10" y="550" type="line"/>
      <point x="32" y="618" type="line"/>
      <point x="161" y="605" type="line"/>
      <point x="191" y="730" type="line"/>
      <point x="259" y="730" type="line"/>
      <point x="289" y="605" type="line"/>
      <point x="418" y="618" type="line"/>
    </contour>
  </outline>
</glyph>
<glyph name="plus" format="1">
  <advance width="472"/>
  <unicode hex="002B"/>
  <outline>
    <contour>
      <point x="441" y="244" type="line"/>
      <point x="326" y="244" type="line"/>
      <point x="326" y="105" type="line"/>
      <point x="146" y="105" type="line"/>
      <point x="146" y="244" type="line"/>
      <point x="29" y="244" type="line"/>
      <point x="29" y="418" type="line"/>
      <point x="146" y="418" type="line"/>
      <point x="146" y="557" type="line"/>
      <point x="326" y="557" type="line"/>
      <point x="326" y="418" type="line"/>
      <point x="441" y="418" type="line"/>
    </contour>
  </outline>
</glyph>
<glyph name="comma" format="1">
  <advance width="241"/>
  <unicode hex="002C"/>
  <outline>
    <contour>
      <point x="211" y="90" type="line" smooth="yes"/>
      <point x="211" y="-23"/>
      <point x="161" y="-94"/>
      <point x="103" y="-128" type="curve"/>
      <point x="4" y="-83" type="line"/>
      <point x="23" y="-50"/>
      <point x="32" y="-5"/>
      <point x="32" y="63" type="curve" smooth="yes"/>
      <point x="32" y="201" type="line"/>
      <point x="211" y="201" type="line"/>
    </contour>
  </outline>
</glyph>
<glyph name="period" format="1">
  <advance width="241"/>
  <unicode hex="002E"/>
  <outline>
    <contour>
      <point x="211" y="0" type="line"/>
      <point x="29" y="0" type="line"/>
      <point x="29" y="201" type="line"/>
      <point x="211" y="201" type="line"/>
    </contour>
  </outline>
</glyph>
<glyph name="slash" format="1">
  <advance width="332"/>
  <unicode hex="002F"/>
  <outline>
    <contour>
      <point x="312" y="730" type="line"/>
      <point x="198" y="0" type="line"/>
      <point x="20" y="0" type="line"/>
      <point x="134" y="730" type="line"/>
    </contour>
  </outline>
</glyph>
<glyph name="zero" format="1">
  <advance width="519"/>
  <unicode hex="0030"/>
  <outline>
    <contour>
      <point x="496" y="363" type="curve" smooth="yes"/>
      <point x="496" y="163"/>
      <point x="420" y="-12"/>
      <point x="261" y="-12" type="curve" smooth="yes"/>
      <point x="103" y="-12"/>
      <point x="27" y="163"/>
      <point x="27" y="363" type="curve" smooth="yes"/>
      <point x="27" y="570"/>
      <point x="103" y="742"/>
      <point x="261" y="742" type="curve" smooth="yes"/>
      <point x="420" y="742"/>
      <point x="496" y="570"/>
    </contour>
    <contour>
      <point x="305" y="363" type="curve" smooth="yes"/>
      <point x="305" y="510"/>
      <point x="291" y="576"/>
      <point x="261" y="576" type="curve" smooth="yes"/>
      <point x="230" y="576"/>
      <point x="218" y="511"/>
      <point x="218" y="363" type="curve" smooth="yes"/>
      <point x="218" y="215"/>
      <point x="230" y="154"/>
      <point x="261" y="154" type="curve" smooth="yes"/>
      <point x="292" y="154"/>
      <point x="305" y="215"/>
    </contour>
  </outline>
</glyph>
<glyph name="one" format="1">
  <advance width="346"/>
  <unicode hex="0031"/>
  <outline>
    <contour>
      <point x="302" y="0" type="line"/>
      <point x="105" y="0" type="line"/>
      <point x="105" y="480" type="line"/>
      <point x="84" y="464"/>
      <point x="43" y="445"/>
      <point x="20" y="442" type="curve"/>
      <point x="20" y="613" type="line"/>
      <point x="69" y="624"/>
      <point x="123" y="668"/>
      <point x="137" y="730" type="curve"/>
      <point x="302" y="730" type="line"/>
    </contour>
  </outline>
</glyph>
<glyph name="two" format="1">
  <advance width="465"/>
  <unicode hex="0032"/>
  <outline>
    <contour>
      <point x="437" y="567" type="curve" smooth="yes"/>
      <point x="437" y="502"/>
      <point x="418" y="445"/>
      <point x="392" y="387" type="curve" smooth="yes"/>
      <point x="293" y="163" type="line"/>
      <point x="434" y="163" type="line"/>
      <point x="434" y="0" type="line"/>
      <point x="5" y="0" type="line"/>
      <point x="195" y="379" type="line" smooth="yes"/>
      <point x="215" y="419"/>
      <point x="246" y="495"/>
      <point x="246" y="544" type="curve" smooth="yes"/>
      <point x="246" y="561"/>
      <point x="237" y="580"/>
      <point x="220" y="580" type="curve" smooth="yes"/>
      <point x="200" y="580"/>
      <point x="192" y="554"/>
      <point x="192" y="522" type="curve" smooth="yes"/>
      <point x="192" y="484" type="line"/>
      <point x="28" y="484" type="line"/>
      <point x="28" y="525" type="line" smooth="yes"/>
      <point x="28" y="664"/>
      <point x="100" y="746"/>
      <point x="232" y="746" type="curve" smooth="yes"/>
      <point x="379" y="746"/>
      <point x="437" y="651"/>
    </contour>
  </outline>
</glyph>
<glyph name="three" format="1">
  <advance width="436"/>
  <unicode hex="0033"/>
  <outline>
    <contour>
      <point x="410" y="225" type="curve" smooth="yes"/>
      <point x="410" y="87"/>
      <point x="321" y="-12"/>
      <point x="197" y="-12" type="curve" smooth="yes"/>
      <point x="113" y="-12"/>
      <point x="42" y="40"/>
      <point x="6" y="114" type="curve"/>
      <point x="122" y="216" type="line"/>
      <point x="136" y="176"/>
      <point x="158" y="152"/>
      <point x="183" y="152" type="curve" smooth="yes"/>
      <point x="208" y="152"/>
      <point x="222" y="182"/>
      <point x="222" y="229" type="curve" smooth="yes"/>
      <point x="222" y="284"/>
      <point x="204" y="319"/>
      <point x="165" y="319" type="curve" smooth="yes"/>
      <point x="133" y="319" type="line"/>
      <point x="133" y="451" type="line"/>
      <point x="141" y="451" type="line" smooth="yes"/>
      <point x="183" y="451"/>
      <point x="213" y="486"/>
      <point x="213" y="530" type="curve" smooth="yes"/>
      <point x="213" y="555"/>
      <point x="213" y="590"/>
      <point x="186" y="590" type="curve" smooth="yes"/>
      <point x="160" y="590"/>
      <point x="153" y="537"/>
      <point x="155" y="512" type="curve"/>
      <point x="11" y="569" type="line"/>
      <point x="26" y="673"/>
      <point x="90" y="742"/>
      <point x="198" y="742" type="curve" smooth="yes"/>
      <point x="325" y="742"/>
      <point x="398" y="665"/>
      <point x="398" y="556" type="curve" smooth="yes"/>
      <point x="398" y="477"/>
      <point x="364" y="432"/>
      <point x="320" y="400" type="curve"/>
      <point x="369" y="374"/>
      <point x="410" y="306"/>
    </contour>
  </outline>
</glyph>
<glyph name="four" format="1">
  <advance width="472"/>
  <unicode hex="0034"/>
  <outline>
    <contour>
      <point x="472" y="136" type="line"/>
      <point x="416" y="136" type="line"/>
      <point x="416" y="0" type="line"/>
      <point x="243" y="0" type="line"/>
      <point x="243" y="136" type="line"/>
      <point x="12" y="136" type="line"/>
      <point x="12" y="269" type="line"/>
      <point x="234" y="730" type="line"/>
      <point x="416" y="730" type="line"/>
      <point x="416" y="270" type="line"/>
      <point x="472" y="270" type="line"/>
    </contour>
    <contour>
      <point x="243" y="270" type="line"/>
      <point x="243" y="458" type="line"/>
      <point x="163" y="270" type="line"/>
    </contour>
  </outline>
</glyph>
<glyph name="five" format="1">
  <advance width="442"/>
  <unicode hex="0035"/>
  <outline>
    <contour>
      <point x="437" y="265" type="curve" smooth="yes"/>
      <point x="437" y="114"/>
      <point x="370" y="-12"/>
      <point x="219" y="-12" type="curve" smooth="yes"/>
      <point x="119" y="-12"/>
      <point x="67" y="24"/>
      <point x="17" y="97" type="curve"/>
      <point x="137" y="208" type="line"/>
      <point x="150" y="173"/>
      <point x="170" y="145"/>
      <point x="194" y="145" type="curve" smooth="yes"/>
      <point x="229" y="145"/>
      <point x="241" y="179"/>
      <point x="241" y="253" type="curve" smooth="yes"/>
      <point x="241" y="307"/>
      <point x="235" y="351"/>
      <point x="207" y="351" type="curve" smooth="yes"/>
      <point x="182" y="351"/>
      <point x="173" y="321"/>
      <point x="165" y="275" type="curve"/>
      <point x="48" y="321" type="line"/>
      <point x="58" y="730" type="line"/>
      <point x="405" y="730" type="line"/>
      <point x="405" y="572" type="line"/>
      <point x="193" y="572" type="line"/>
      <point x="190" y="466" type="line"/>
      <point x="209" y="482"/>
      <point x="234" y="496"/>
      <point x="272" y="496" type="curve" smooth="yes"/>
      <point x="381" y="496"/>
      <point x="437" y="385"/>
    </contour>
  </outline>
</glyph>
<glyph name="six" format="1">
  <advance width="483"/>
  <unicode hex="0036"/>
  <outline>
    <contour>
      <point x="457" y="261" type="curve" smooth="yes"/>
      <point x="457" y="98"/>
      <point x="374" y="-12"/>
      <point x="246" y="-12" type="curve" smooth="yes"/>
      <point x="102" y="-12"/>
      <point x="29" y="86"/>
      <point x="29" y="274" type="curve" smooth="yes"/>
      <point x="29" y="376"/>
      <point x="71" y="535"/>
      <point x="210" y="730" type="curve"/>
      <point x="408" y="730" type="line"/>
      <point x="360" y="683"/>
      <point x="288" y="565"/>
      <point x="250" y="479" type="curve"/>
      <point x="257" y="481"/>
      <point x="277" y="487"/>
      <point x="294" y="487" type="curve" smooth="yes"/>
      <point x="395" y="487"/>
      <point x="457" y="393"/>
    </contour>
    <contour>
      <point x="270" y="244" type="curve" smooth="yes"/>
      <point x="270" y="310"/>
      <point x="265" y="351"/>
      <point x="241" y="351" type="curve" smooth="yes"/>
      <point x="222" y="351"/>
      <point x="214" y="311"/>
      <point x="214" y="240" type="curve" smooth="yes"/>
      <point x="214" y="172"/>
      <point x="224" y="134"/>
      <point x="240" y="134" type="curve" smooth="yes"/>
      <point x="261" y="134"/>
      <point x="270" y="164"/>
    </contour>
  </outline>
</glyph>
<glyph name="seven" format="1">
  <advance width="472"/>
  <unicode hex="0037"/>
  <outline>
    <contour>
      <point x="473" y="730" type="line"/>
      <point x="249" y="0" type="line"/>
      <point x="38" y="0" type="line"/>
      <point x="207" y="570" type="line"/>
      <point x="38" y="570" type="line"/>
      <point x="38" y="730" type="line"/>
    </contour>
  </outline>
</glyph>
<glyph name="eight" format="1">
  <advance width="468"/>
  <unicode hex="0038"/>
  <outline>
    <contour>
      <point x="448" y="221" type="curve" smooth="yes"/>
      <point x="448" y="99"/>
      <point x="360" y="-12"/>
      <point x="234" y="-12" type="curve" smooth="yes"/>
      <point x="106" y="-12"/>
      <point x="19" y="99"/>
      <point x="19" y="213" type="curve" smooth="yes"/>
      <point x="19" y="288"/>
      <point x="39" y="345"/>
      <point x="93" y="397" type="curve"/>
      <point x="62" y="431"/>
      <point x="38" y="476"/>
      <point x="38" y="552" type="curve" smooth="yes"/>
      <point x="38" y="642"/>
      <point x="100" y="742"/>
      <point x="234" y="742" type="curve" smooth="yes"/>
      <point x="366" y="742"/>
      <point x="427" y="644"/>
      <point x="427" y="552" type="curve" smooth="yes"/>
      <point x="427" y="476"/>
      <point x="398" y="431"/>
      <point x="367" y="397" type="curve"/>
      <point x="422" y="345"/>
      <point x="448" y="288"/>
    </contour>
    <contour>
      <point x="261" y="530" type="curve" smooth="yes"/>
      <point x="261" y="571"/>
      <point x="252" y="607"/>
      <point x="232" y="607" type="curve" smooth="yes"/>
      <point x="212" y="607"/>
      <point x="203" y="572"/>
      <point x="203" y="530" type="curve" smooth="yes"/>
      <point x="203" y="484"/>
      <point x="210" y="448"/>
      <point x="232" y="448" type="curve" smooth="yes"/>
      <point x="254" y="448"/>
      <point x="261" y="484"/>
    </contour>
    <contour>
      <point x="271" y="222" type="curve" smooth="yes"/>
      <point x="271" y="273"/>
      <point x="260" y="321"/>
      <point x="234" y="321" type="curve" smooth="yes"/>
      <point x="206" y="321"/>
      <point x="195" y="273"/>
      <point x="195" y="222" type="curve" smooth="yes"/>
      <point x="195" y="169"/>
      <point x="209" y="132"/>
      <point x="234" y="132" type="curve" smooth="yes"/>
      <point x="259" y="132"/>
      <point x="271" y="169"/>
    </contour>
  </outline>
</glyph>
<glyph name="nine" format="1">
  <advance width="483"/>
  <unicode hex="0039"/>
  <outline>
    <contour>
      <point x="447" y="456" type="curve" smooth="yes"/>
      <point x="447" y="354"/>
      <point x="404" y="180"/>
      <point x="263" y="-12" type="curve"/>
      <point x="114" y="71" type="line"/>
      <point x="158" y="126"/>
      <point x="199" y="188"/>
      <point x="228" y="251" type="curve"/>
      <point x="221" y="249"/>
      <point x="201" y="243"/>
      <point x="185" y="243" type="curve" smooth="yes"/>
      <point x="83" y="243"/>
      <point x="19" y="337"/>
      <point x="19" y="469" type="curve" smooth="yes"/>
      <point x="19" y="632"/>
      <point x="101" y="742"/>
      <point x="230" y="742" type="curve" smooth="yes"/>
      <point x="373" y="742"/>
      <point x="447" y="644"/>
    </contour>
    <contour>
      <point x="263" y="490" type="curve" smooth="yes"/>
      <point x="263" y="558"/>
      <point x="253" y="596"/>
      <point x="235" y="596" type="curve" smooth="yes"/>
      <point x="214" y="596"/>
      <point x="205" y="566"/>
      <point x="205" y="486" type="curve" smooth="yes"/>
      <point x="205" y="420"/>
      <point x="210" y="377"/>
      <point x="236" y="377" type="curve" smooth="yes"/>
      <point x="256" y="377"/>
      <point x="263" y="419"/>
    </contour>
  </outline>
</glyph>
<glyph name="colon" format="1">
  <advance width="241"/>
  <unicode hex="003A"/>
  <outline>
    <contour>
      <point x="211" y="262" type="line"/>
      <point x="29" y="262" type="line"/>
      <point x="29" y="450" type="line"/>
      <point x="211" y="450" type="line"/>
    </contour>
    <contour>
      <point x="211" y="0" type="line"/>
      <point x="29" y="0" type="line"/>
      <point x="29" y="188" type="line"/>
      <point x="211" y="188" type="line"/>
    </contour>
  </outline>
</glyph>
<glyph name="semicolon" format="1">
  <advance width="241"/>
  <unicode hex="003B"/>
  <outline>
    <contour>
      <point x="211" y="262" type="line"/>
      <point x="29" y="262" type="line"/>
      <point x="29" y="450" type="line"/>
      <point x="211" y="450" type="line"/>
    </contour>
    <contour>
      <point x="211" y="90" type="line" smooth="yes"/>
      <point x="211" y="-23"/>
      <point x="161" y="-94"/>
      <point x="103" y="-128" type="curve"/>
      <point x="4" y="-83" type="line"/>
      <point x="23" y="-50"/>
      <point x="32" y="-5"/>
      <point x="32" y="63" type="curve" smooth="yes"/>
      <point x="32" y="188" type="line"/>
      <point x="211" y="188" type="line"/>
    </contour>
  </outline>
</glyph>
<glyph name="less" format="1">
  <advance width="390"/>
  <unicode hex="003C"/>
  <outline>
    <contour>
      <point x="353" y="77" type="line"/>
      <point x="32" y="253" type="line"/>
      <point x="32" y="396" type="line"/>
      <point x="353" y="570" type="line"/>
      <point x="353" y="399" type="line"/>
      <point x="197" y="325" type="line"/>
      <point x="353" y="250" type="line"/>
    </contour>
  </outline>
</glyph>
<glyph name="equal" format="1">
  <advance width="482"/>
  <unicode hex="003D"/>
  <outline>
    <contour>
      <point x="447" y="374" type="line"/>
      <point x="35" y="374" type="line"/>
      <point x="35" y="538" type="line"/>
      <point x="447" y="538" type="line"/>
    </contour>
    <contour>
      <point x="447" y="128" type="line"/>
      <point x="35" y="128" type="line"/>
      <point x="35" y="292" type="line"/>
      <point x="447" y="292" type="line"/>
    </contour>
  </outline>
</glyph>
<glyph name="greater" format="1">
  <advance width="390"/>
  <unicode hex="003E"/>
  <outline>
    <contour>
      <point x="356" y="250" type="line"/>
      <point x="37" y="78" type="line"/>
      <point x="37" y="249" type="line"/>
      <point x="191" y="323" type="line"/>
      <point x="37" y="396" type="line"/>
      <point x="37" y="569" type="line"/>
      <point x="356" y="395" type="line"/>
    </contour>
  </outline>
</glyph>
<glyph name="question" format="1">
  <advance width="405"/>
  <unicode hex="003F"/>
  <outline>
    <contour>
      <point x="396" y="580" type="curve" smooth="yes"/>
      <point x="396" y="510"/>
      <point x="382" y="483"/>
      <point x="336" y="411" type="curve" smooth="yes"/>
      <point x="308" y="367"/>
      <point x="299" y="334"/>
      <point x="299" y="268" type="curve" smooth="yes"/>
      <point x="299" y="252" type="line"/>
      <point x="131" y="252" type="line"/>
      <point x="131" y="296" type="line" smooth="yes"/>
      <point x="131" y="376"/>
      <point x="149" y="433"/>
      <point x="186" y="504" type="curve" smooth="yes"/>
      <point x="198" y="526"/>
      <point x="203" y="539"/>
      <point x="203" y="549" type="curve" smooth="yes"/>
      <point x="203" y="562"/>
      <point x="197" y="570"/>
      <point x="185" y="570" type="curve" smooth="yes"/>
      <point x="169" y="570"/>
      <point x="141" y="539"/>
      <point x="109" y="469" type="curve"/>
      <point x="0" y="603" type="line"/>
      <point x="37" y="679"/>
      <point x="110" y="742"/>
      <point x="217" y="742" type="curve" smooth="yes"/>
      <point x="338" y="742"/>
      <point x="396" y="668"/>
    </contour>
    <contour>
      <point x="317" y="0" type="line"/>
      <point x="114" y="0" type="line"/>
      <point x="114" y="189" type="line"/>
      <point x="317" y="189" type="line"/>
    </contour>
  </outline>
</glyph>
<glyph name="at" format="1">
  <advance width="844"/>
  <unicode hex="0040"/>
  <outline>
    <contour>
      <point x="799" y="395" type="curve" smooth="yes"/>
      <point x="799" y="239"/>
      <point x="713" y="163"/>
      <point x="614" y="163" type="curve" smooth="yes"/>
      <point x="554" y="163"/>
      <point x="510" y="186"/>
      <point x="479" y="216" type="curve"/>
      <point x="447" y="186"/>
      <point x="402" y="163"/>
      <point x="344" y="163" type="curve" smooth="yes"/>
      <point x="271" y="163"/>
      <point x="215" y="205"/>
      <point x="215" y="278" type="curve" smooth="yes"/>
      <point x="215" y="376"/>
      <point x="296" y="423"/>
      <point x="449" y="430" type="curve"/>
      <point x="449" y="435" type="line" smooth="yes"/>
      <point x="449" y="459"/>
      <point x="435" y="471"/>
      <point x="396" y="471" type="curve" smooth="yes"/>
      <point x="362" y="471"/>
      <point x="319" y="460"/>
      <point x="285" y="440" type="curve"/>
      <point x="246" y="543" type="line"/>
      <point x="298" y="571"/>
      <point x="352" y="587"/>
      <point x="446" y="587" type="curve" smooth="yes"/>
      <point x="563" y="587"/>
      <point x="626" y="541"/>
      <point x="626" y="425" type="curve" smooth="yes"/>
      <point x="626" y="305" type="line" smooth="yes"/>
      <point x="626" y="267"/>
      <point x="640" y="249"/>
      <point x="667" y="249" type="curve" smooth="yes"/>
      <point x="708" y="249"/>
      <point x="735" y="296"/>
      <point x="735" y="389" type="curve" smooth="yes"/>
      <point x="735" y="557"/>
      <point x="625" y="682"/>
      <point x="423" y="682" type="curve" smooth="yes"/>
      <point x="242" y="682"/>
      <point x="112" y="549"/>
      <point x="112" y="361" type="curve" smooth="yes"/>
      <point x="112" y="174"/>
      <point x="249" y="42"/>
      <point x="423" y="42" type="curve" smooth="yes"/>
      <point x="460" y="42"/>
      <point x="507" y="48"/>
      <point x="554" y="70" type="curve"/>
      <point x="574" y="21" type="line"/>
      <point x="519" y="-4"/>
      <point x="468" y="-12"/>
      <point x="422" y="-12" type="curve" smooth="yes"/>
      <point x="214" y="-12"/>
      <point x="45" y="157"/>
      <point x="45" y="365" type="curve" smooth="yes"/>
      <point x="45" y="573"/>
      <point x="214" y="742"/>
      <point x="422" y="742" type="curve" smooth="yes"/>
      <point x="650" y="742"/>
      <point x="799" y="587"/>
    </contour>
    <contour>
      <point x="451" y="286" type="curve"/>
      <point x="451" y="349" type="line"/>
      <point x="398" y="348"/>
      <point x="378" y="330"/>
      <point x="378" y="301" type="curve" smooth="yes"/>
      <point x="378" y="280"/>
      <point x="394" y="268"/>
      <point x="411" y="268" type="curve" smooth="yes"/>
      <point x="427" y="268"/>
      <point x="442" y="275"/>
    </contour>
  </outline>
</glyph>
<glyph name="A" format="1">
  <advance width="548"/>
  <unicode hex="0041"/>
  <outline>
    <contour>
      <point x="537" y="0" type="line"/>
      <point x="334" y="0" type="line"/>
      <point x="322" y="81" type="line"/>
      <point x="215" y="81" type="line"/>
      <point x="203" y="0" type="line"/>
      <point x="9" y="0" type="line"/>
      <point x="173" y="730" type="line"/>
      <point x="373" y="730" type="line"/>
    </contour>
    <contour>
      <point x="303" y="219" type="line"/>
      <point x="269" y="462" type="line"/>
      <point x="234" y="219" type="line"/>
    </contour>
  </outline>
</glyph>
<glyph name="B" format="1">
  <advance width="492"/>
  <unicode hex="0042"/>
  <outline>
    <contour>
      <point x="476" y="207" type="curve" smooth="yes"/>
      <point x="476" y="59"/>
      <point x="366" y="0"/>
      <point x="255" y="0" type="curve" smooth="yes"/>
      <point x="33" y="0" type="line"/>
      <point x="33" y="730" type="line"/>
      <point x="245" y="730" type="line" smooth="yes"/>
      <point x="360" y="730"/>
      <point x="461" y="670"/>
      <point x="461" y="535" type="curve" smooth="yes"/>
      <point x="461" y="448"/>
      <point x="415" y="402"/>
      <point x="367" y="378" type="curve"/>
      <point x="424" y="353"/>
      <point x="476" y="305"/>
    </contour>
    <contour>
      <point x="279" y="514" type="curve" smooth="yes"/>
      <point x="279" y="562"/>
      <point x="259" y="594"/>
      <point x="226" y="594" type="curve"/>
      <point x="226" y="593" type="line"/>
      <point x="226" y="431" type="line"/>
      <point x="226" y="430" type="line"/>
      <point x="259" y="430"/>
      <point x="279" y="464"/>
    </contour>
    <contour>
      <point x="289" y="221" type="curve" smooth="yes"/>
      <point x="289" y="279"/>
      <point x="259" y="305"/>
      <point x="226" y="305" type="curve"/>
      <point x="226" y="304" type="line"/>
      <point x="226" y="137" type="line"/>
      <point x="226" y="136" type="line"/>
      <point x="263" y="136"/>
      <point x="289" y="165"/>
    </contour>
  </outline>
</glyph>
<glyph name="C" format="1">
  <advance width="451"/>
  <unicode hex="0043"/>
  <outline>
    <contour>
      <point x="439" y="82" type="line"/>
      <point x="405" y="29"/>
      <point x="351" y="-12"/>
      <point x="280" y="-12" type="curve" smooth="yes"/>
      <point x="125" y="-12"/>
      <point x="22" y="132"/>
      <point x="22" y="365" type="curve" smooth="yes"/>
      <point x="22" y="598"/>
      <point x="125" y="742"/>
      <point x="280" y="742" type="curve" smooth="yes"/>
      <point x="362" y="742"/>
      <point x="409" y="699"/>
      <point x="442" y="639" type="curve"/>
      <point x="323" y="526" type="line"/>
      <point x="316" y="558"/>
      <point x="303" y="572"/>
      <point x="280" y="572" type="curve" smooth="yes"/>
      <point x="238" y="572"/>
      <point x="222" y="491"/>
      <point x="222" y="365" type="curve" smooth="yes"/>
      <point x="222" y="239"/>
      <point x="238" y="157"/>
      <point x="280" y="157" type="curve" smooth="yes"/>
      <point x="306" y="157"/>
      <point x="321" y="181"/>
      <point x="335" y="203" type="curve"/>
    </contour>
  </outline>
</glyph>
<glyph name="D" format="1">
  <advance width="534"/>
  <unicode hex="0044"/>
  <outline>
    <contour>
      <point x="512" y="365" type="curve" smooth="yes"/>
      <point x="512" y="178"/>
      <point x="431" y="0"/>
      <point x="236" y="0" type="curve" smooth="yes"/>
      <point x="35" y="0" type="line"/>
      <point x="35" y="730" type="line"/>
      <point x="236" y="730" type="line" smooth="yes"/>
      <point x="431" y="730"/>
      <point x="512" y="551"/>
    </contour>
    <contour>
      <point x="311" y="365" type="curve" smooth="yes"/>
      <point x="311" y="458"/>
      <point x="301" y="565"/>
      <point x="241" y="565" type="curve" smooth="yes"/>
      <point x="231" y="565" type="line"/>
      <point x="231" y="165" type="line"/>
      <point x="241" y="165" type="line" smooth="yes"/>
      <point x="301" y="165"/>
      <point x="311" y="271"/>
    </contour>
  </outline>
</glyph>
<glyph name="E" format="1">
  <advance width="399"/>
  <unicode hex="0045"/>
  <outline>
    <contour>
      <point x="371" y="0" type="line"/>
      <point x="33" y="0" type="line"/>
      <point x="33" y="730" type="line"/>
      <point x="368" y="730" type="line"/>
      <point x="368" y="575" type="line"/>
      <point x="233" y="575" type="line"/>
      <point x="233" y="445" type="line"/>
      <point x="355" y="445" type="line"/>
      <point x="355" y="292" type="line"/>
      <point x="233" y="292" type="line"/>
      <point x="233" y="155" type="line"/>
      <point x="371" y="155" type="line"/>
    </contour>
  </outline>
</glyph>
<glyph name="F" format="1">
  <advance width="387"/>
  <unicode hex="0046"/>
  <outline>
    <contour>
      <point x="364" y="575" type="line"/>
      <point x="234" y="575" type="line"/>
      <point x="234" y="443" type="line"/>
      <point x="351" y="443" type="line"/>
      <point x="351" y="288" type="line"/>
      <point x="234" y="288" type="line"/>
      <point x="234" y="0" type="line"/>
      <point x="33" y="0" type="line"/>
      <point x="33" y="730" type="line"/>
      <point x="364" y="730" type="line"/>
    </contour>
  </outline>
</glyph>
<glyph name="G" format="1">
  <advance width="510"/>
  <unicode hex="0047"/>
  <outline>
    <contour>
      <point x="482" y="73" type="line"/>
      <point x="434" y="21"/>
      <point x="364" y="-12"/>
      <point x="275" y="-12" type="curve" smooth="yes"/>
      <point x="122" y="-12"/>
      <point x="22" y="132"/>
      <point x="22" y="365" type="curve" smooth="yes"/>
      <point x="22" y="598"/>
      <point x="128" y="742"/>
      <point x="278" y="742" type="curve" smooth="yes"/>
      <point x="372" y="742"/>
      <point x="425" y="696"/>
      <point x="464" y="621" type="curve"/>
      <point x="329" y="514" type="line"/>
      <point x="320" y="550"/>
      <point x="304" y="575"/>
      <point x="279" y="575" type="curve" smooth="yes"/>
      <point x="240" y="575"/>
      <point x="221" y="501"/>
      <point x="221" y="365" type="curve" smooth="yes"/>
      <point x="221" y="220"/>
      <point x="234" y="138"/>
      <point x="278" y="138" type="curve" smooth="yes"/>
      <point x="287" y="138"/>
      <point x="296" y="141"/>
      <point x="303" y="148" type="curve"/>
      <point x="303" y="292" type="line"/>
      <point x="258" y="292" type="line"/>
      <point x="258" y="428" type="line"/>
      <point x="482" y="428" type="line"/>
    </contour>
  </outline>
</glyph>
<glyph name="H" format="1">
  <advance width="545"/>
  <unicode hex="0048"/>
  <outline>
    <contour>
      <point x="511" y="0" type="line"/>
      <point x="308" y="0" type="line"/>
      <point x="308" y="283" type="line"/>
      <point x="237" y="283" type="line"/>
      <point x="237" y="0" type="line"/>
      <point x="33" y="0" type="line"/>
      <point x="33" y="730" type="line"/>
      <point x="237" y="730" type="line"/>
      <point x="237" y="454" type="line"/>
      <point x="308" y="454" type="line"/>
      <point x="308" y="730" type="line"/>
      <point x="511" y="730" type="line"/>
    </contour>
  </outline>
</glyph>
<glyph name="I" format="1">
  <advance width="273"/>
  <unicode hex="0049"/>
  <outline>
    <contour>
      <point x="238" y="0" type="line"/>
      <point x="35" y="0" type="line"/>
      <point x="35" y="730" type="line"/>
      <point x="238" y="730" type="line"/>
    </contour>
  </outline>
</glyph>
<glyph name="J" format="1">
  <advance width="337"/>
  <unicode hex="004A"/>
  <outline>
    <contour>
      <point x="307" y="239" type="line" smooth="yes"/>
      <point x="307" y="60"/>
      <point x="244" y="0"/>
      <point x="92" y="0" type="curve" smooth="yes"/>
      <point x="19" y="0" type="line"/>
      <point x="19" y="158" type="line"/>
      <point x="38" y="158" type="line" smooth="yes"/>
      <point x="93" y="158"/>
      <point x="103" y="185"/>
      <point x="103" y="247" type="curve" smooth="yes"/>
      <point x="103" y="730" type="line"/>
      <point x="307" y="730" type="line"/>
    </contour>
  </outline>
</glyph>
<glyph name="K" format="1">
  <advance width="531"/>
  <unicode hex="004B"/>
  <outline>
    <contour>
      <point x="526" y="0" type="line"/>
      <point x="311" y="0" type="line"/>
      <point x="241" y="279" type="line"/>
      <point x="237" y="273" type="line"/>
      <point x="237" y="0" type="line"/>
      <point x="33" y="0" type="line"/>
      <point x="33" y="730" type="line"/>
      <point x="237" y="730" type="line"/>
      <point x="237" y="513" type="line"/>
      <point x="315" y="730" type="line"/>
      <point x="524" y="730" type="line"/>
      <point x="397" y="445" type="line"/>
    </contour>
  </outline>
</glyph>
<glyph name="L" format="1">
  <advance width="384"/>
  <unicode hex="004C"/>
  <outline>
    <contour>
      <point x="364" y="0" type="line"/>
      <point x="33" y="0" type="line"/>
      <point x="33" y="730" type="line"/>
      <point x="234" y="730" type="line"/>
      <point x="234" y="157" type="line"/>
      <point x="364" y="157" type="line"/>
    </contour>
  </outline>
</glyph>
<glyph name="M" format="1">
  <advance width="650"/>
  <unicode hex="004D"/>
  <outline>
    <contour>
      <point x="616" y="0" type="line"/>
      <point x="432" y="0" type="line"/>
      <point x="432" y="369" type="line"/>
      <point x="371" y="177" type="line"/>
      <point x="277" y="177" type="line"/>
      <point x="217" y="369" type="line"/>
      <point x="217" y="0" type="line"/>
      <point x="33" y="0" type="line"/>
      <point x="33" y="730" type="line"/>
      <point x="224" y="730" type="line"/>
      <point x="326" y="459" type="line"/>
      <point x="427" y="730" type="line"/>
      <point x="616" y="730" type="line"/>
    </contour>
  </outline>
</glyph>
<glyph name="N" format="1">
  <advance width="528"/>
  <unicode hex="004E"/>
  <outline>
    <contour>
      <point x="495" y="0" type="line"/>
      <point x="346" y="0" type="line"/>
      <point x="219" y="312" type="line"/>
      <point x="219" y="0" type="line"/>
      <point x="33" y="0" type="line"/>
      <point x="33" y="730" type="line"/>
      <point x="190" y="730" type="line"/>
      <point x="309" y="438" type="line"/>
      <point x="309" y="730" type="line"/>
      <point x="495" y="730" type="line"/>
    </contour>
  </outline>
</glyph>
<glyph name="O" format="1">
  <advance width="555"/>
  <unicode hex="004F"/>
  <outline>
    <contour>
      <point x="534" y="365" type="curve" smooth="yes"/>
      <point x="534" y="132"/>
      <point x="432" y="-12"/>
      <point x="278" y="-12" type="curve" smooth="yes"/>
      <point x="123" y="-12"/>
      <point x="22" y="132"/>
      <point x="22" y="365" type="curve" smooth="yes"/>
      <point x="22" y="598"/>
      <point x="123" y="742"/>
      <point x="278" y="742" type="curve" smooth="yes"/>
      <point x="432" y="742"/>
      <point x="534" y="598"/>
    </contour>
    <contour>
      <point x="333" y="365" type="curve" smooth="yes"/>
      <point x="333" y="497"/>
      <point x="319" y="580"/>
      <point x="278" y="580" type="curve" smooth="yes"/>
      <point x="236" y="580"/>
      <point x="222" y="497"/>
      <point x="222" y="365" type="curve" smooth="yes"/>
      <point x="222" y="233"/>
      <point x="236" y="150"/>
      <point x="278" y="150" type="curve" smooth="yes"/>
      <point x="319" y="150"/>
      <point x="333" y="233"/>
    </contour>
  </outline>
</glyph>
<glyph name="P" format="1">
  <advance width="486"/>
  <unicode hex="0050"/>
  <outline>
    <contour>
      <point x="476" y="488" type="curve" smooth="yes"/>
      <point x="476" y="313"/>
      <point x="369" y="236"/>
      <point x="242" y="234" type="curve"/>
      <point x="233" y="233" type="line"/>
      <point x="233" y="0" type="line"/>
      <point x="33" y="0" type="line"/>
      <point x="33" y="730" type="line"/>
      <point x="241" y="730" type="line" smooth="yes"/>
      <point x="358" y="730"/>
      <point x="476" y="661"/>
    </contour>
    <contour>
      <point x="293" y="485" type="curve" smooth="yes"/>
      <point x="293" y="553"/>
      <point x="273" y="581"/>
      <point x="240" y="584" type="curve"/>
      <point x="231" y="583" type="line"/>
      <point x="231" y="384" type="line"/>
      <point x="240" y="383" type="line"/>
      <point x="272" y="387"/>
      <point x="293" y="416"/>
    </contour>
  </outline>
</glyph>
<glyph name="Q" format="1">
  <advance width="555"/>
  <unicode hex="0051"/>
  <outline>
    <contour>
      <point x="549" y="64" type="curve"/>
      <point x="440" y="-54" type="line"/>
      <point x="412" y="-44"/>
      <point x="380" y="-21"/>
      <point x="357" y="6" type="curve"/>
      <point x="332" y="-3"/>
      <point x="306" y="-8"/>
      <point x="278" y="-8" type="curve" smooth="yes"/>
      <point x="123" y="-8"/>
      <point x="22" y="132"/>
      <point x="22" y="365" type="curve" smooth="yes"/>
      <point x="22" y="598"/>
      <point x="123" y="742"/>
      <point x="278" y="742" type="curve" smooth="yes"/>
      <point x="432" y="742"/>
      <point x="534" y="598"/>
      <point x="534" y="365" type="curve" smooth="yes"/>
      <point x="534" y="259"/>
      <point x="513" y="170"/>
      <point x="473" y="106" type="curve"/>
      <point x="498" y="87"/>
      <point x="523" y="72"/>
    </contour>
    <contour>
      <point x="333" y="365" type="curve" smooth="yes"/>
      <point x="333" y="497"/>
      <point x="319" y="580"/>
      <point x="278" y="580" type="curve" smooth="yes"/>
      <point x="236" y="580"/>
      <point x="222" y="497"/>
      <point x="222" y="365" type="curve" smooth="yes"/>
      <point x="222" y="233"/>
      <point x="236" y="150"/>
      <point x="278" y="150" type="curve" smooth="yes"/>
      <point x="319" y="150"/>
      <point x="333" y="233"/>
    </contour>
  </outline>
</glyph>
<glyph name="R" format="1">
  <advance width="507"/>
  <unicode hex="0052"/>
  <outline>
    <contour>
      <point x="492" y="0" type="line"/>
      <point x="291" y="0" type="line"/>
      <point x="233" y="239" type="line"/>
      <point x="233" y="0" type="line"/>
      <point x="33" y="0" type="line"/>
      <point x="33" y="730" type="line"/>
      <point x="244" y="730" type="line" smooth="yes"/>
      <point x="372" y="730"/>
      <point x="475" y="662"/>
      <point x="475" y="505" type="curve" smooth="yes"/>
      <point x="475" y="425"/>
      <point x="445" y="364"/>
      <point x="400" y="329" type="curve"/>
    </contour>
    <contour>
      <point x="291" y="489" type="curve" smooth="yes"/>
      <point x="291" y="558"/>
      <point x="268" y="580"/>
      <point x="237" y="584" type="curve"/>
      <point x="231" y="583" type="line"/>
      <point x="231" y="394" type="line"/>
      <point x="237" y="393" type="line"/>
      <point x="269" y="398"/>
      <point x="291" y="421"/>
    </contour>
  </outline>
</glyph>
<glyph name="S" format="1">
  <advance width="460"/>
  <unicode hex="0053"/>
  <outline>
    <contour>
      <point x="441" y="199" type="curve" smooth="yes"/>
      <point x="441" y="73"/>
      <point x="349" y="-12"/>
      <point x="228" y="-12" type="curve" smooth="yes"/>
      <point x="128" y="-12"/>
      <point x="58" y="35"/>
      <point x="10" y="106" type="curve"/>
      <point x="121" y="225" type="line"/>
      <point x="161" y="169"/>
      <point x="188" y="146"/>
      <point x="217" y="146" type="curve" smooth="yes"/>
      <point x="238" y="146"/>
      <point x="252" y="160"/>
      <point x="252" y="185" type="curve" smooth="yes"/>
      <point x="252" y="213"/>
      <point x="233" y="237"/>
      <point x="176" y="289" type="curve" smooth="yes"/>
      <point x="84" y="371"/>
      <point x="26" y="439"/>
      <point x="26" y="542" type="curve" smooth="yes"/>
      <point x="26" y="643"/>
      <point x="92" y="742"/>
      <point x="236" y="742" type="curve" smooth="yes"/>
      <point x="330" y="742"/>
      <point x="388" y="695"/>
      <point x="427" y="640" type="curve"/>
      <point x="319" y="525" type="line"/>
      <point x="287" y="567"/>
      <point x="268" y="584"/>
      <point x="244" y="584" type="curve" smooth="yes"/>
      <point x="224" y="584"/>
      <point x="214" y="572"/>
      <point x="214" y="555" type="curve" smooth="yes"/>
      <point x="214" y="529"/>
      <point x="227" y="510"/>
      <point x="283" y="461" type="curve" smooth="yes"/>
      <point x="379" y="379"/>
      <point x="441" y="307"/>
    </contour>
  </outline>
</glyph>
<glyph name="T" format="1">
  <advance width="436"/>
  <unicode hex="0054"/>
  <outline>
    <contour>
      <point x="422" y="573" type="line"/>
      <point x="319" y="573" type="line"/>
      <point x="319" y="0" type="line"/>
      <point x="118" y="0" type="line"/>
      <point x="118" y="573" type="line"/>
      <point x="15" y="573" type="line"/>
      <point x="15" y="730" type="line"/>
      <point x="422" y="730" type="line"/>
    </contour>
  </outline>
</glyph>
<glyph name="V" format="1">
  <advance width="525"/>
  <unicode hex="0056"/>
  <outline>
    <contour>
      <point x="517" y="730" type="line"/>
      <point x="360" y="0" type="line"/>
      <point x="166" y="0" type="line"/>
      <point x="9" y="730" type="line"/>
      <point x="214" y="730" type="line"/>
      <point x="266" y="319" type="line"/>
      <point x="319" y="730" type="line"/>
    </contour>
  </outline>
</glyph>
<glyph name="W" format="1">
  <advance width="785"/>
  <unicode hex="0057"/>
  <outline>
    <contour>
      <point x="776" y="730" type="line"/>
      <point x="643" y="0" type="line"/>
      <point x="455" y="0" type="line"/>
      <point x="392" y="341" type="line"/>
      <point x="329" y="0" type="line"/>
      <point x="142" y="0" type="line"/>
      <point x="9" y="730" type="line"/>
      <point x="210" y="730" type="line"/>
      <point x="257" y="354" type="line"/>
      <point x="316" y="730" type="line"/>
      <point x="471" y="730" type="line"/>
      <point x="532" y="354" type="line"/>
      <point x="580" y="730" type="line"/>
    </contour>
  </outline>
</glyph>
<glyph name="X" format="1">
  <advance width="543"/>
  <unicode hex="0058"/>
  <outline>
    <contour>
      <point x="537" y="0" type="line"/>
      <point x="329" y="0" type="line"/>
      <point x="271" y="176" type="line"/>
      <point x="209" y="0" type="line"/>
      <point x="6" y="0" type="line"/>
      <point x="157" y="375" type="line"/>
      <point x="19" y="730" type="line"/>
      <point x="227" y="730" type="line"/>
      <point x="272" y="577" type="line"/>
      <point x="324" y="730" type="line"/>
      <point x="524" y="730" type="line"/>
      <point x="385" y="381" type="line"/>
    </contour>
  </outline>
</glyph>
<glyph name="Y" format="1">
  <advance width="516"/>
  <unicode hex="0059"/>
  <outline>
    <contour>
      <point x="515" y="730" type="line"/>
      <point x="358" y="311" type="line"/>
      <point x="358" y="0" type="line"/>
      <point x="157" y="0" type="line"/>
      <point x="157" y="312" type="line"/>
      <point x="1" y="730" type="line"/>
      <point x="210" y="730" type="line"/>
      <point x="261" y="513" type="line"/>
      <point x="312" y="730" type="line"/>
    </contour>
  </outline>
</glyph>
<glyph name="Z" format="1">
  <advance width="488"/>
  <unicode hex="005A"/>
  <outline>
    <contour>
      <point x="480" y="730" type="line"/>
      <point x="273" y="154" type="line"/>
      <point x="461" y="154" type="line"/>
      <point x="461" y="0" type="line"/>
      <point x="7" y="0" type="line"/>
      <point x="215" y="576" type="line"/>
      <point x="45" y="576" type="line"/>
      <point x="45" y="730" type="line"/>
    </contour>
  </outline>
</glyph>
<glyph name="bracketleft" format="1">
  <advance width="370"/>
  <unicode hex="005B"/>
  <outline>
    <contour>
      <point x="348" y="-179" type="line"/>
      <point x="40" y="-179" type="line"/>
      <point x="40" y="730" type="line"/>
      <point x="348" y="730" type="line"/>
      <point x="348" y="605" type="line"/>
      <point x="229" y="605" type="line"/>
      <point x="229" y="-54" type="line"/>
      <point x="348" y="-54" type="line"/>
    </contour>
  </outline>
</glyph>
<glyph name="backslash" format="1">
  <advance width="332"/>
  <unicode hex="005C"/>
  <outline>
    <contour>
      <point x="312" y="0" type="line"/>
      <point x="134" y="0" type="line"/>
      <point x="20" y="730" type="line"/>
      <point x="198" y="730" type="line"/>
    </contour>
  </outline>
</glyph>
<glyph name="bracketright" format="1">
  <advance width="370"/>
  <unicode hex="005D"/>
  <outline>
    <contour>
      <point x="330" y="-179" type="line"/>
      <point x="22" y="-179" type="line"/>
      <point x="22" y="-54" type="line"/>
      <point x="141" y="-54" type="line"/>
      <point x="141" y="605" type="line"/>
      <point x="22" y="605" type="line"/>
      <point x="22" y="730" type="line"/>
      <point x="330" y="730" type="line"/>
    </contour>
  </outline>
</glyph>
<glyph name="asciicircum" format="1">
  <advance width="479"/>
  <unicode hex="005E"/>
  <outline>
    <contour>
      <point x="164" y="730" type="line"/>
      <point x="315" y="730" type="line"/>
      <point x="461" y="370" type="line"/>
      <point x="311" y="370" type="line"/>
      <point x="239" y="550" type="line"/>
      <point x="168" y="370" type="line"/>
      <point x="18" y="370" type="line"/>
    </contour>
  </outline>
</glyph>
<glyph name="grave" format="1">
  <advance width="450"/>
  <unicode hex="0060"/>
  <outline>
    <contour>
      <point x="196" y="508" type="line"/>
      <point x="97" y="685" type="line"/>
      <point x="225" y="685" type="line"/>
      <point x="294" y="508" type="line"/>
    </contour>
  </outline>
</glyph>
<glyph name="a" format="1">
  <advance width="409"/>
  <unicode hex="0061"/>
  <outline>
    <contour>
      <point x="385" y="0" type="line"/>
      <point x="213" y="0" type="line"/>
      <point x="213" y="33" type="line"/>
      <point x="189" y="8"/>
      <point x="162" y="-9"/>
      <point x="121" y="-9" type="curve" smooth="yes"/>
      <point x="61" y="-9"/>
      <point x="12" y="35"/>
      <point x="12" y="125" type="curve" smooth="yes"/>
      <point x="12" y="218"/>
      <point x="87" y="281"/>
      <point x="213" y="288" type="curve"/>
      <point x="213" y="298" type="line" smooth="yes"/>
      <point x="213" y="336"/>
      <point x="204" y="351"/>
      <point x="170" y="351" type="curve" smooth="yes"/>
      <point x="138" y="351"/>
      <point x="106" y="340"/>
      <point x="82" y="324" type="curve"/>
      <point x="43" y="423" type="line"/>
      <point x="92" y="453"/>
      <point x="143" y="469"/>
      <point x="225" y="469" type="curve" smooth="yes"/>
      <point x="345" y="469"/>
      <point x="385" y="405"/>
      <point x="385" y="327" type="curve" smooth="yes"/>
    </contour>
    <contour>
      <point x="214" y="102" type="curve"/>
      <point x="214" y="212" type="line"/>
      <point x="189" y="208"/>
      <point x="166" y="190"/>
      <point x="166" y="147" type="curve" smooth="yes"/>
      <point x="166" y="114"/>
      <point x="184" y="99"/>
      <point x="205" y="99" type="curve" smooth="yes"/>
      <point x="208" y="99"/>
      <point x="212" y="100"/>
    </contour>
  </outline>
</glyph>
<glyph name="c" format="1">
  <advance width="387"/>
  <unicode hex="0063"/>
  <outline>
    <contour>
      <point x="378" y="106" type="line"/>
      <point x="351" y="30"/>
      <point x="288" y="-12"/>
      <point x="214" y="-12" type="curve" smooth="yes"/>
      <point x="95" y="-12"/>
      <point x="15" y="86"/>
      <point x="15" y="230" type="curve" smooth="yes"/>
      <point x="15" y="373"/>
      <point x="97" y="473"/>
      <point x="214" y="473" type="curve" smooth="yes"/>
      <point x="303" y="473"/>
      <point x="354" y="419"/>
      <point x="377" y="359" type="curve"/>
      <point x="248" y="279" type="line"/>
      <point x="244" y="314"/>
      <point x="233" y="332"/>
      <point x="216" y="332" type="curve" smooth="yes"/>
      <point x="198" y="332"/>
      <point x="189" y="305"/>
      <point x="189" y="230" type="curve" smooth="yes"/>
      <point x="189" y="154"/>
      <point x="199" y="129"/>
      <point x="219" y="129" type="curve" smooth="yes"/>
      <point x="237" y="129"/>
      <point x="247" y="151"/>
      <point x="252" y="186" type="curve"/>
    </contour>
  </outline>
</glyph>
<glyph name="d" format="1">
  <advance width="437"/>
  <unicode hex="0064"/>
  <outline>
    <contour>
      <point x="411" y="0" type="line"/>
      <point x="238" y="0" type="line"/>
      <point x="238" y="46" type="line"/>
      <point x="217" y="15"/>
      <point x="191" y="-9"/>
      <point x="156" y="-9" type="curve" smooth="yes"/>
      <point x="62" y="-9"/>
      <point x="18" y="103"/>
      <point x="18" y="230" type="curve" smooth="yes"/>
      <point x="18" y="357"/>
      <point x="62" y="468"/>
      <point x="156" y="468" type="curve" smooth="yes"/>
      <point x="191" y="468"/>
      <point x="217" y="445"/>
      <point x="238" y="413" type="curve"/>
      <point x="238" y="730" type="line"/>
      <point x="411" y="730" type="line"/>
    </contour>
    <contour>
      <point x="245" y="231" type="curve" smooth="yes"/>
      <point x="245" y="309"/>
      <point x="235" y="337"/>
      <point x="214" y="337" type="curve" smooth="yes"/>
      <point x="193" y="337"/>
      <point x="183" y="309"/>
      <point x="183" y="231" type="curve" smooth="yes"/>
      <point x="183" y="154"/>
      <point x="193" y="124"/>
      <point x="214" y="124" type="curve" smooth="yes"/>
      <point x="235" y="124"/>
      <point x="245" y="154"/>
    </contour>
  </outline>
</glyph>
<glyph name="e" format="1">
  <advance width="405"/>
  <unicode hex="0065"/>
  <outline>
    <contour>
      <point x="389" y="188" type="curve"/>
      <point x="173" y="188" type="line"/>
      <point x="177" y="135"/>
      <point x="201" y="111"/>
      <point x="231" y="111" type="curve" smooth="yes"/>
      <point x="260" y="111"/>
      <point x="284" y="127"/>
      <point x="308" y="159" type="curve"/>
      <point x="384" y="77" type="line"/>
      <point x="348" y="26"/>
      <point x="293" y="-12"/>
      <point x="212" y="-12" type="curve" smooth="yes"/>
      <point x="95" y="-12"/>
      <point x="14" y="84"/>
      <point x="14" y="230" type="curve" smooth="yes"/>
      <point x="14" y="373"/>
      <point x="97" y="473"/>
      <point x="201" y="473" type="curve" smooth="yes"/>
      <point x="336" y="473"/>
      <point x="389" y="359"/>
      <point x="389" y="215" type="curve" smooth="yes"/>
      <point x="389" y="207"/>
      <point x="389" y="197"/>
    </contour>
    <contour>
      <point x="237" y="270" type="line"/>
      <point x="237" y="329"/>
      <point x="228" y="366"/>
      <point x="204" y="366" type="curve" smooth="yes"/>
      <point x="185" y="366"/>
      <point x="172" y="336"/>
      <point x="171" y="270" type="curve"/>
    </contour>
  </outline>
</glyph>
<glyph name="g" format="1">
  <advance width="437"/>
  <unicode hex="0067"/>
  <outline>
    <contour>
      <point x="411" y="14" type="line" smooth="yes"/>
      <point x="411" y="-108"/>
      <point x="357" y="-179"/>
      <point x="217" y="-179" type="curve" smooth="yes"/>
      <point x="136" y="-179"/>
      <point x="76" y="-160"/>
      <point x="30" y="-126" type="curve"/>
      <point x="95" y="-23" type="line"/>
      <point x="121" y="-42"/>
      <point x="153" y="-55"/>
      <point x="183" y="-55" type="curve" smooth="yes"/>
      <point x="216" y="-55"/>
      <point x="238" y="-38"/>
      <point x="238" y="3" type="curve" smooth="yes"/>
      <point x="238" y="54" type="line"/>
      <point x="217" y="23"/>
      <point x="190" y="-1"/>
      <point x="155" y="-1" type="curve" smooth="yes"/>
      <point x="61" y="-1"/>
      <point x="17" y="110"/>
      <point x="17" y="233" type="curve" smooth="yes"/>
      <point x="17" y="356"/>
      <point x="61" y="468"/>
      <point x="155" y="468" type="curve" smooth="yes"/>
      <point x="190" y="468"/>
      <point x="217" y="445"/>
      <point x="238" y="413" type="curve"/>
      <point x="238" y="461" type="line"/>
      <point x="411" y="461" type="line"/>
    </contour>
    <contour>
      <point x="245" y="234" type="curve" smooth="yes"/>
      <point x="245" y="309"/>
      <point x="235" y="337"/>
      <point x="214" y="337" type="curve" smooth="yes"/>
      <point x="193" y="337"/>
      <point x="183" y="309"/>
      <point x="183" y="234" type="curve" smooth="yes"/>
      <point x="183" y="160"/>
      <point x="193" y="131"/>
      <point x="214" y="131" type="curve" smooth="yes"/>
      <point x="235" y="131"/>
      <point x="245" y="160"/>
    </contour>
  </outline>
</glyph>
<glyph name="i" format="1">
  <advance width="228"/>
  <unicode hex="0069"/>
  <outline>
    <contour>
      <point x="202" y="511" type="line"/>
      <point x="26" y="511" type="line"/>
      <point x="26" y="666" type="line"/>
      <point x="202" y="666" type="line"/>
    </contour>
    <contour>
      <point x="201" y="0" type="line"/>
      <point x="27" y="0" type="line"/>
      <point x="27" y="461" type="line"/>
      <point x="201" y="461" type="line"/>
    </contour>
  </outline>
</glyph>
<glyph name="j" format="1">
  <advance width="228"/>
  <unicode hex="006A"/>
  <outline>
    <contour>
      <point x="202" y="511" type="line"/>
      <point x="26" y="511" type="line"/>
      <point x="26" y="666" type="line"/>
      <point x="202" y="666" type="line"/>
    </contour>
    <contour>
      <point x="201" y="-11" type="line" smooth="yes"/>
      <point x="201" y="-116"/>
      <point x="155" y="-179"/>
      <point x="44" y="-179" type="curve" smooth="yes"/>
      <point x="10" y="-179"/>
      <point x="-8" y="-176"/>
      <point x="-20" y="-173" type="curve"/>
      <point x="-20" y="-47" type="line"/>
      <point x="-18" y="-48"/>
      <point x="-13" y="-48"/>
      <point x="-11" y="-48" type="curve" smooth="yes"/>
      <point x="15" y="-48"/>
      <point x="27" y="-33"/>
      <point x="27" y="1" type="curve" smooth="yes"/>
      <point x="27" y="461" type="line"/>
      <point x="201" y="461" type="line"/>
    </contour>
  </outline>
</glyph>
<glyph name="k" format="1">
  <advance width="427"/>
  <unicode hex="006B"/>
  <outline>
    <contour>
      <point x="422" y="0" type="line"/>
      <point x="249" y="0" type="line"/>
      <point x="205" y="151" type="line"/>
      <point x="199" y="143" type="line"/>
      <point x="199" y="0" type="line"/>
      <point x="26" y="0" type="line"/>
      <point x="26" y="730" type="line"/>
      <point x="199" y="730" type="line"/>
      <point x="199" y="323" type="line"/>
      <point x="248" y="461" type="line"/>
      <point x="415" y="461" type="line"/>
      <point x="338" y="277" type="line"/>
    </contour>
  </outline>
</glyph>
<glyph name="l" format="1">
  <advance width="228"/>
  <unicode hex="006C"/>
  <outline>
    <contour>
      <point x="201" y="0" type="line"/>
      <point x="27" y="0" type="line"/>
      <point x="27" y="730" type="line"/>
      <point x="201" y="730" type="line"/>
    </contour>
  </outline>
</glyph>
<glyph name="m" format="1">
  <advance width="647"/>
  <unicode hex="006D"/>
  <outline>
    <contour>
      <point x="623" y="0" type="line"/>
      <point x="453" y="0" type="line"/>
      <point x="453" y="287" type="line" smooth="yes"/>
      <point x="453" y="303"/>
      <point x="448" y="318"/>
      <point x="432" y="318" type="curve" smooth="yes"/>
      <point x="415" y="318"/>
      <point x="410" y="303"/>
      <point x="410" y="287" type="curve" smooth="yes"/>
      <point x="410" y="0" type="line"/>
      <point x="239" y="0" type="line"/>
      <point x="239" y="287" type="line" smooth="yes"/>
      <point x="239" y="303"/>
      <point x="235" y="318"/>
      <point x="219" y="318" type="curve" smooth="yes"/>
      <point x="202" y="318"/>
      <point x="197" y="303"/>
      <point x="197" y="287" type="curve" smooth="yes"/>
      <point x="197" y="0" type="line"/>
      <point x="26" y="0" type="line"/>
      <point x="26" y="461" type="line"/>
      <point x="197" y="461" type="line"/>
      <point x="197" y="415" type="line"/>
      <point x="222" y="449"/>
      <point x="259" y="473"/>
      <point x="305" y="473" type="curve" smooth="yes"/>
      <point x="353" y="473"/>
      <point x="385" y="447"/>
      <point x="399" y="411" type="curve"/>
      <point x="427" y="447"/>
      <point x="463" y="473"/>
      <point x="513" y="473" type="curve" smooth="yes"/>
      <point x="584" y="473"/>
      <point x="623" y="424"/>
      <point x="623" y="351" type="curve" smooth="yes"/>
    </contour>
  </outline>
</glyph>
<glyph name="n" format="1">
  <advance width="441"/>
  <unicode hex="006E"/>
  <outline>
    <contour>
      <point x="418" y="0" type="line"/>
      <point x="245" y="0" type="line"/>
      <point x="245" y="287" type="line" smooth="yes"/>
      <point x="245" y="303"/>
      <point x="239" y="318"/>
      <point x="222" y="318" type="curve" smooth="yes"/>
      <point x="206" y="318"/>
      <point x="199" y="303"/>
      <point x="199" y="287" type="curve" smooth="yes"/>
      <point x="199" y="0" type="line"/>
      <point x="26" y="0" type="line"/>
      <point x="26" y="461" type="line"/>
      <point x="199" y="461" type="line"/>
      <point x="199" y="415" type="line"/>
      <point x="224" y="449"/>
      <point x="263" y="473"/>
      <point x="309" y="473" type="curve" smooth="yes"/>
      <point x="380" y="473"/>
      <point x="418" y="417"/>
      <point x="418" y="351" type="curve" smooth="yes"/>
    </contour>
  </outline>
</glyph>
<glyph name="o" format="1">
  <advance width="434"/>
  <unicode hex="006F"/>
  <outline>
    <contour>
      <point x="419" y="230" type="curve" smooth="yes"/>
      <point x="419" y="86"/>
      <point x="340" y="-12"/>
      <point x="217" y="-12" type="curve" smooth="yes"/>
      <point x="94" y="-12"/>
      <point x="15" y="86"/>
      <point x="15" y="230" type="curve" smooth="yes"/>
      <point x="15" y="373"/>
      <point x="94" y="473"/>
      <point x="217" y="473" type="curve" smooth="yes"/>
      <point x="340" y="473"/>
      <point x="419" y="373"/>
    </contour>
    <contour>
      <point x="248" y="230" type="curve" smooth="yes"/>
      <point x="248" y="307"/>
      <point x="238" y="337"/>
      <point x="217" y="337" type="curve" smooth="yes"/>
      <point x="196" y="337"/>
      <point x="186" y="307"/>
      <point x="186" y="230" type="curve" smooth="yes"/>
      <point x="186" y="152"/>
      <point x="196" y="124"/>
      <point x="217" y="124" type="curve" smooth="yes"/>
      <point x="238" y="124"/>
      <point x="248" y="152"/>
    </contour>
  </outline>
</glyph>
<glyph name="r" format="1">
  <advance width="310"/>
  <unicode hex="0072"/>
  <outline>
    <contour>
      <point x="298" y="289" type="line"/>
      <point x="237" y="287"/>
      <point x="199" y="245"/>
      <point x="199" y="169" type="curve" smooth="yes"/>
      <point x="199" y="0" type="line"/>
      <point x="26" y="0" type="line"/>
      <point x="26" y="461" type="line"/>
      <point x="199" y="461" type="line"/>
      <point x="199" y="404" type="line"/>
      <point x="221" y="441"/>
      <point x="260" y="468"/>
      <point x="298" y="469" type="curve"/>
    </contour>
  </outline>
</glyph>
<glyph name="s" format="1">
  <advance width="348"/>
  <unicode hex="0073"/>
  <outline>
    <contour>
      <point x="334" y="137" type="curve" smooth="yes"/>
      <point x="334" y="55"/>
      <point x="281" y="-9"/>
      <point x="168" y="-9" type="curve" smooth="yes"/>
      <point x="99" y="-9"/>
      <point x="50" y="10"/>
      <point x="8" y="42" type="curve"/>
      <point x="74" y="144" type="line"/>
      <point x="104" y="122"/>
      <point x="133" y="107"/>
      <point x="164" y="107" type="curve" smooth="yes"/>
      <point x="181" y="107"/>
      <point x="185" y="116"/>
      <point x="185" y="126" type="curve" smooth="yes"/>
      <point x="185" y="138"/>
      <point x="173" y="151"/>
      <point x="135" y="169" type="curve" smooth="yes"/>
      <point x="59" y="204"/>
      <point x="20" y="245"/>
      <point x="20" y="322" type="curve" smooth="yes"/>
      <point x="20" y="402"/>
      <point x="73" y="470"/>
      <point x="183" y="470" type="curve" smooth="yes"/>
      <point x="245" y="470"/>
      <point x="291" y="450"/>
      <point x="326" y="418" type="curve"/>
      <point x="260" y="317" type="line"/>
      <point x="237" y="339"/>
      <point x="215" y="354"/>
      <point x="188" y="354" type="curve" smooth="yes"/>
      <point x="175" y="354"/>
      <point x="169" y="344"/>
      <point x="169" y="334" type="curve" smooth="yes"/>
      <point x="169" y="322"/>
      <point x="182" y="310"/>
      <point x="221" y="290" type="curve" smooth="yes"/>
      <point x="296" y="251"/>
      <point x="334" y="212"/>
    </contour>
  </outline>
</glyph>
<glyph name="t" format="1">
  <advance width="296"/>
  <unicode hex="0074"/>
  <outline>
    <contour>
      <point x="276" y="-1" type="line"/>
      <point x="186" y="-1" type="line" smooth="yes"/>
      <point x="80" y="-1"/>
      <point x="52" y="47"/>
      <point x="52" y="131" type="curve" smooth="yes"/>
      <point x="52" y="330" type="line"/>
      <point x="8" y="330" type="line"/>
      <point x="8" y="461" type="line"/>
      <point x="52" y="461" type="line"/>
      <point x="52" y="631" type="line"/>
      <point x="225" y="631" type="line"/>
      <point x="225" y="461" type="line"/>
      <point x="276" y="461" type="line"/>
      <point x="276" y="330" type="line"/>
      <point x="225" y="330" type="line"/>
      <point x="225" y="159" type="line" smooth="yes"/>
      <point x="225" y="138"/>
      <point x="233" y="128"/>
      <point x="255" y="128" type="curve" smooth="yes"/>
      <point x="276" y="128" type="line"/>
    </contour>
  </outline>
</glyph>
<glyph name="u" format="1">
  <advance width="441"/>
  <unicode hex="0075"/>
  <outline>
    <contour>
      <point x="415" y="0" type="line"/>
      <point x="242" y="0" type="line"/>
      <point x="242" y="46" type="line"/>
      <point x="217" y="12"/>
      <point x="178" y="-12"/>
      <point x="132" y="-12" type="curve" smooth="yes"/>
      <point x="61" y="-12"/>
      <point x="23" y="44"/>
      <point x="23" y="110" type="curve" smooth="yes"/>
      <point x="23" y="461" type="line"/>
      <point x="196" y="461" type="line"/>
      <point x="196" y="174" type="line" smooth="yes"/>
      <point x="196" y="158"/>
      <point x="202" y="143"/>
      <point x="219" y="143" type="curve" smooth="yes"/>
      <point x="235" y="143"/>
      <point x="242" y="158"/>
      <point x="242" y="174" type="curve" smooth="yes"/>
      <point x="242" y="461" type="line"/>
      <point x="415" y="461" type="line"/>
    </contour>
  </outline>
</glyph>
<glyph name="v" format="1">
  <advance width="435"/>
  <unicode hex="0076"/>
  <outline>
    <contour>
      <point x="431" y="461" type="line"/>
      <point x="292" y="0" type="line"/>
      <point x="142" y="0" type="line"/>
      <point x="4" y="461" type="line"/>
      <point x="178" y="461" type="line"/>
      <point x="218" y="230" type="line"/>
      <point x="257" y="461" type="line"/>
    </contour>
  </outline>
</glyph>
<glyph name="w" format="1">
  <advance width="574"/>
  <unicode hex="0077"/>
  <outline>
    <contour>
      <point x="568" y="461" type="line"/>
      <point x="467" y="0" type="line"/>
      <point x="323" y="0" type="line"/>
      <point x="287" y="119" type="line"/>
      <point x="251" y="0" type="line"/>
      <point x="107" y="0" type="line"/>
      <point x="5" y="461" type="line"/>
      <point x="177" y="461" type="line"/>
      <point x="213" y="241" type="line"/>
      <point x="287" y="480" type="line"/>
      <point x="361" y="241" type="line"/>
      <point x="397" y="461" type="line"/>
    </contour>
  </outline>
</glyph>
<glyph name="x" format="1">
  <advance width="432"/>
  <unicode hex="0078"/>
  <outline>
    <contour>
      <point x="424" y="0" type="line"/>
      <point x="251" y="0" type="line"/>
      <point x="214" y="98" type="line"/>
      <point x="175" y="0" type="line"/>
      <point x="8" y="0" type="line"/>
      <point x="122" y="229" type="line"/>
      <point x="12" y="461" type="line"/>
      <point x="184" y="461" type="line"/>
      <point x="216" y="364" type="line"/>
      <point x="252" y="461" type="line"/>
      <point x="419" y="461" type="line"/>
      <point x="309" y="233" type="line"/>
    </contour>
  </outline>
</glyph>
<glyph name="y" format="1">
  <advance width="437"/>
  <unicode hex="0079"/>
  <outline>
    <contour>
      <point x="433" y="461" type="line"/>
      <point x="283" y="-51" type="line" smooth="yes"/>
      <point x="259" y="-134"/>
      <point x="213" y="-179"/>
      <point x="114" y="-179" type="curve" smooth="yes"/>
      <point x="89" y="-179"/>
      <point x="72" y="-176"/>
      <point x="61" y="-173" type="curve"/>
      <point x="61" y="-46" type="line"/>
      <point x="68" y="-47"/>
      <point x="78" y="-48"/>
      <point x="89" y="-48" type="curve" smooth="yes"/>
      <point x="112" y="-48"/>
      <point x="129" y="-41"/>
      <point x="143" y="-23" type="curve"/>
      <point x="145" y="-16" type="line"/>
      <point x="4" y="461" type="line"/>
      <point x="178" y="461" type="line"/>
      <point x="219" y="221" type="line"/>
      <point x="259" y="461" type="line"/>
    </contour>
  </outline>
</glyph>
<glyph name="z" format="1">
  <advance width="405"/>
  <unicode hex="007A"/>
  <outline>
    <contour>
      <point x="393" y="461" type="line"/>
      <point x="244" y="131" type="line"/>
      <point x="384" y="131" type="line"/>
      <point x="384" y="0" type="line"/>
      <point x="8" y="0" type="line"/>
      <point x="159" y="330" type="line"/>
      <point x="31" y="330" type="line"/>
      <point x="31" y="461" type="line"/>
    </contour>
  </outline>
</glyph>
<glyph name="braceleft" format="1">
  <advance width="340"/>
  <unicode hex="007B"/>
  <outline>
    <contour>
      <point x="280" y="502" type="curve" smooth="yes"/>
      <point x="280" y="371"/>
      <point x="260" y="312"/>
      <point x="156" y="277" type="curve"/>
      <point x="260" y="244"/>
      <point x="280" y="183"/>
      <point x="280" y="52" type="curve" smooth="yes"/>
      <point x="280" y="13"/>
      <point x="292" y="-21"/>
      <point x="322" y="-21" type="curve"/>
      <point x="322" y="-181" type="line"/>
      <point x="166" y="-181"/>
      <point x="85" y="-60"/>
      <point x="85" y="86" type="curve" smooth="yes"/>
      <point x="85" y="170"/>
      <point x="74" y="188"/>
      <point x="5" y="199" type="curve"/>
      <point x="5" y="355" type="line"/>
      <point x="74" y="366"/>
      <point x="85" y="384"/>
      <point x="85" y="468" type="curve" smooth="yes"/>
      <point x="85" y="614"/>
      <point x="166" y="735"/>
      <point x="322" y="735" type="curve"/>
      <point x="322" y="575" type="line"/>
      <point x="292" y="575"/>
      <point x="280" y="541"/>
    </contour>
  </outline>
</glyph>
<glyph name="bar" format="1">
  <advance width="270"/>
  <unicode hex="007C"/>
  <outline>
    <contour>
      <point x="225" y="-179" type="line"/>
      <point x="45" y="-179" type="line"/>
      <point x="45" y="730" type="line"/>
      <point x="225" y="730" type="line"/>
    </contour>
  </outline>
</glyph>
<glyph name="braceright" format="1">
  <advance width="340"/>
  <unicode hex="007D"/>
  <outline>
    <contour>
      <point x="59" y="502" type="curve" smooth="yes"/>
      <point x="59" y="541"/>
      <point x="47" y="575"/>
      <point x="17" y="575" type="curve"/>
      <point x="17" y="735" type="line"/>
      <point x="173" y="735"/>
      <point x="254" y="614"/>
      <point x="254" y="468" type="curve" smooth="yes"/>
      <point x="254" y="384"/>
      <point x="265" y="366"/>
      <point x="334" y="355" type="curve"/>
      <point x="334" y="199" type="line"/>
      <point x="265" y="188"/>
      <point x="254" y="170"/>
      <point x="254" y="86" type="curve" smooth="yes"/>
      <point x="254" y="-60"/>
      <point x="173" y="-181"/>
      <point x="17" y="-181" type="curve"/>
      <point x="17" y="-21" type="line"/>
      <point x="47" y="-21"/>
      <point x="59" y="13"/>
      <point x="59" y="52" type="curve" smooth="yes"/>
      <point x="59" y="183"/>
      <point x="79" y="244"/>
      <point x="183" y="277" type="curve"/>
      <point x="79" y="312"/>
      <point x="59" y="371"/>
    </contour>
  </outline>
</glyph>
<glyph name="asciitilde" format="1">
  <advance width="487"/>
  <unicode hex="007E"/>
  <outline>
    <contour>
      <point x="353" y="245" type="curve" smooth="yes"/>
      <point x="313" y="245"/>
      <point x="291" y="254"/>
      <point x="258" y="277" type="curve" smooth="yes"/>
      <point x="218" y="304"/>
      <point x="207" y="314"/>
      <point x="184" y="314" type="curve" smooth="yes"/>
      <point x="162" y="314"/>
      <point x="159" y="287"/>
      <point x="165" y="248" type="curve"/>
      <point x="25" y="248" type="line"/>
      <point x="11" y="386"/>
      <point x="43" y="487"/>
      <point x="140" y="487" type="curve" smooth="yes"/>
      <point x="182" y="487"/>
      <point x="216" y="468"/>
      <point x="242" y="452" type="curve" smooth="yes"/>
      <point x="273" y="433"/>
      <point x="284" y="422"/>
      <point x="305" y="422" type="curve" smooth="yes"/>
      <point x="323" y="422"/>
      <point x="331" y="447"/>
      <point x="322" y="486" type="curve"/>
      <point x="462" y="486" type="line"/>
      <point x="479" y="350"/>
      <point x="431" y="245"/>
    </contour>
  </outline>
</glyph>
<glyph name="exclamdown" format="1">
  <advance width="269"/>
  <unicode hex="00A1"/>
  <outline>
    <contour>
      <point x="236" y="541" type="line"/>
      <point x="33" y="541" type="line"/>
      <point x="33" y="730" type="line"/>
      <point x="236" y="730" type="line"/>
    </contour>
    <contour>
      <point x="236" y="0" type="line"/>
      <point x="33" y="0" type="line"/>
      <point x="33" y="222" type="line"/>
      <point x="70" y="478" type="line"/>
      <point x="200" y="478" type="line"/>
      <point x="236" y="222" type="line"/>
    </contour>
  </outline>
</glyph>
<glyph name="cent" format="1">
  <advance width="390"/>
  <unicode hex="00A2"/>
  <outline>
    <contour>
      <point x="377" y="116" type="line"/>
      <point x="355" y="54"/>
      <point x="309" y="14"/>
      <point x="252" y="2" type="curve"/>
      <point x="252" y="-79" type="line"/>
      <point x="164" y="-79" type="line"/>
      <point x="164" y="4" type="line"/>
      <point x="73" y="26"/>
      <point x="14" y="113"/>
      <point x="14" y="230" type="curve" smooth="yes"/>
      <point x="14" y="346"/>
      <point x="74" y="434"/>
      <point x="164" y="457" type="curve"/>
      <point x="164" y="525" type="line"/>
      <point x="252" y="525" type="line"/>
      <point x="252" y="459" type="line"/>
      <point x="317" y="446"/>
      <point x="357" y="400"/>
      <point x="376" y="349" type="curve"/>
      <point x="247" y="269" type="line"/>
      <point x="243" y="304"/>
      <point x="233" y="322"/>
      <point x="216" y="322" type="curve" smooth="yes"/>
      <point x="198" y="322"/>
      <point x="188" y="299"/>
      <point x="188" y="230" type="curve" smooth="yes"/>
      <point x="188" y="160"/>
      <point x="199" y="139"/>
      <point x="219" y="139" type="curve" smooth="yes"/>
      <point x="237" y="139"/>
      <point x="246" y="161"/>
      <point x="251" y="196" type="curve"/>
    </contour>
  </outline>
</glyph>
<glyph name="sterling" format="1">
  <advance width="612"/>
  <unicode hex="00A3"/>
  <outline>
    <contour>
      <point x="461" y="209" type="curve"/>
      <point x="582" y="209" type="line"/>
      <point x="582" y="209"/>
      <point x="582" y="186"/>
      <point x="582" y="156" type="curve" smooth="yes"/>
      <point x="582" y="43"/>
      <point x="544" y="-9"/>
      <point x="479" y="-9" type="curve" smooth="yes"/>
      <point x="399" y="-9"/>
      <point x="357" y="36"/>
      <point x="324" y="67" type="curve"/>
      <point x="298" y="25"/>
      <point x="247" y="-12"/>
      <point x="175" y="-12" type="curve" smooth="yes"/>
      <point x="76" y="-12"/>
      <point x="24" y="41"/>
      <point x="24" y="117" type="curve" smooth="yes"/>
      <point x="24" y="190"/>
      <point x="94" y="245"/>
      <point x="162" y="245" type="curve" smooth="yes"/>
      <point x="186" y="245"/>
      <point x="208" y="238"/>
      <point x="227" y="230" type="curve"/>
      <point x="212" y="274"/>
      <point x="187" y="303"/>
      <point x="167" y="329" type="curve"/>
      <point x="36" y="329" type="line"/>
      <point x="36" y="378" type="line"/>
      <point x="126" y="378" type="line"/>
      <point x="106" y="404"/>
      <point x="62" y="460"/>
      <point x="62" y="540" type="curve" smooth="yes"/>
      <point x="62" y="640"/>
      <point x="138" y="742"/>
      <point x="291" y="742" type="curve" smooth="yes"/>
      <point x="430" y="742"/>
      <point x="521" y="671"/>
      <point x="527" y="511" type="curve"/>
      <point x="367" y="511" type="line"/>
      <point x="367" y="560"/>
      <point x="348" y="597"/>
      <point x="297" y="597" type="curve" smooth="yes"/>
      <point x="247" y="597"/>
      <point x="227" y="566"/>
      <point x="227" y="526" type="curve" smooth="yes"/>
      <point x="227" y="463"/>
      <point x="293" y="405"/>
      <point x="307" y="378" type="curve"/>
      <point x="408" y="378" type="line"/>
      <point x="408" y="329" type="line"/>
      <point x="331" y="329" type="line"/>
      <point x="344" y="303"/>
      <point x="365" y="245"/>
      <point x="356" y="183" type="curve"/>
      <point x="381" y="162"/>
      <point x="410" y="146"/>
      <point x="431" y="146" type="curve" smooth="yes"/>
      <point x="457" y="146"/>
      <point x="463" y="165"/>
    </contour>
    <contour>
      <point x="169" y="77" type="curve" smooth="yes"/>
      <point x="204" y="77"/>
      <point x="228" y="104"/>
      <point x="235" y="133" type="curve"/>
      <point x="214" y="155"/>
      <point x="193" y="157"/>
      <point x="174" y="157" type="curve" smooth="yes"/>
      <point x="141" y="157"/>
      <point x="127" y="138"/>
      <point x="127" y="117" type="curve" smooth="yes"/>
      <point x="127" y="98"/>
      <point x="140" y="77"/>
    </contour>
  </outline>
</glyph>
<glyph name="yen" format="1">
  <advance width="566"/>
  <unicode hex="00A5"/>
  <outline>
    <contour>
      <point x="366" y="263" type="line"/>
      <point x="455" y="263" type="line"/>
      <point x="455" y="220" type="line"/>
      <point x="365" y="220" type="line"/>
      <point x="365" y="160" type="line"/>
      <point x="455" y="160" type="line"/>
      <point x="455" y="119" type="line"/>
      <point x="365" y="119" type="line"/>
      <point x="365" y="0" type="line"/>
      <point x="192" y="0" type="line"/>
      <point x="192" y="119" type="line"/>
      <point x="104" y="119" type="line"/>
      <point x="104" y="160" type="line"/>
      <point x="192" y="160" type="line"/>
      <point x="192" y="220" type="line"/>
      <point x="104" y="220" type="line"/>
      <point x="104" y="263" type="line"/>
      <point x="187" y="263" type="line"/>
      <point x="14" y="730" type="line"/>
      <point x="203" y="730" type="line"/>
      <point x="265" y="501" type="line" smooth="yes"/>
      <point x="270" y="483"/>
      <point x="278" y="453"/>
      <point x="280" y="439" type="curve"/>
      <point x="283" y="453"/>
      <point x="291" y="487"/>
      <point x="295" y="501" type="curve" smooth="yes"/>
      <point x="355" y="730" type="line"/>
      <point x="547" y="730" type="line"/>
    </contour>
  </outline>
</glyph>
<glyph name="brokenbar" format="1">
  <advance width="270"/>
  <unicode hex="00A6"/>
  <outline>
    <contour>
      <point x="45" y="351" type="line"/>
      <point x="45" y="730" type="line"/>
      <point x="225" y="730" type="line"/>
      <point x="225" y="351" type="line"/>
    </contour>
    <contour>
      <point x="225" y="200" type="line"/>
      <point x="225" y="-179" type="line"/>
      <point x="45" y="-179" type="line"/>
      <point x="45" y="200" type="line"/>
    </contour>
  </outline>
</glyph>
<glyph name="section" format="1">
  <advance width="519"/>
  <unicode hex="00A7"/>
  <outline>
    <contour>
      <point x="464" y="19" type="curve" smooth="yes"/>
      <point x="464" y="-94"/>
      <point x="376" y="-177"/>
      <point x="246" y="-177" type="curve" smooth="yes"/>
      <point x="183" y="-177"/>
      <point x="110" y="-153"/>
      <point x="60" y="-116" type="curve"/>
      <point x="130" y="6" type="line"/>
      <point x="170" y="-25"/>
      <point x="212" y="-38"/>
      <point x="252" y="-38" type="curve" smooth="yes"/>
      <point x="282" y="-38"/>
      <point x="304" y="-19"/>
      <point x="304" y="5" type="curve" smooth="yes"/>
      <point x="304" y="42"/>
      <point x="279" y="49"/>
      <point x="187" y="92" type="curve" smooth="yes"/>
      <point x="67" y="148"/>
      <point x="26" y="186"/>
      <point x="26" y="272" type="curve" smooth="yes"/>
      <point x="26" y="349"/>
      <point x="77" y="393"/>
      <point x="109" y="423" type="curve"/>
      <point x="80" y="452"/>
      <point x="56" y="497"/>
      <point x="56" y="547" type="curve" smooth="yes"/>
      <point x="56" y="660"/>
      <point x="143" y="744"/>
      <point x="273" y="744" type="curve" smooth="yes"/>
      <point x="336" y="744"/>
      <point x="390" y="728"/>
      <point x="452" y="689" type="curve"/>
      <point x="380" y="565" type="line"/>
      <point x="340" y="592"/>
      <point x="310" y="604"/>
      <point x="277" y="604" type="curve" smooth="yes"/>
      <point x="239" y="604"/>
      <point x="216" y="582"/>
      <point x="216" y="559" type="curve" smooth="yes"/>
      <point x="216" y="524"/>
      <point x="237" y="512"/>
      <point x="311" y="487" type="curve" smooth="yes"/>
      <point x="429" y="447"/>
      <point x="499" y="410"/>
      <point x="499" y="305" type="curve" smooth="yes"/>
      <point x="499" y="226"/>
      <point x="461" y="172"/>
      <point x="417" y="137" type="curve"/>
      <point x="446" y="108"/>
      <point x="464" y="69"/>
    </contour>
    <contour>
      <point x="214" y="376" type="curve"/>
      <point x="189" y="347"/>
      <point x="175" y="327"/>
      <point x="175" y="295" type="curve" smooth="yes"/>
      <point x="175" y="249"/>
      <point x="218" y="236"/>
      <point x="306" y="195" type="curve"/>
      <point x="331" y="222"/>
      <point x="342" y="246"/>
      <point x="342" y="279" type="curve" smooth="yes"/>
      <point x="342" y="323"/>
      <point x="316" y="336"/>
      <point x="234" y="368" type="curve" smooth="yes"/>
      <point x="227" y="371"/>
      <point x="221" y="373"/>
    </contour>
  </outline>
</glyph>
<glyph name="dieresis" format="1">
  <advance width="450"/>
  <unicode hex="00A8"/>
  <outline>
    <contour>
      <point x="359" y="508" type="line"/>
      <point x="249" y="508" type="line"/>
      <point x="249" y="664" type="line"/>
      <point x="359" y="664" type="line"/>
    </contour>
    <contour>
      <point x="201" y="508" type="line"/>
      <point x="91" y="508" type="line"/>
      <point x="91" y="664" type="line"/>
      <point x="201" y="664" type="line"/>
    </contour>
  </outline>
</glyph>
<glyph name="ordfeminine" format="1">
  <advance width="352"/>
  <unicode hex="00AA"/>
  <outline>
    <contour>
      <point x="312" y="400" type="line"/>
      <point x="188" y="400" type="line"/>
      <point x="188" y="424" type="line"/>
      <point x="171" y="406"/>
      <point x="155" y="397"/>
      <point x="125" y="397" type="curve" smooth="yes"/>
      <point x="81" y="397"/>
      <point x="40" y="424"/>
      <point x="40" y="491" type="curve" smooth="yes"/>
      <point x="40" y="559"/>
      <point x="96" y="605"/>
      <point x="188" y="610" type="curve"/>
      <point x="188" y="617" type="line" smooth="yes"/>
      <point x="188" y="645"/>
      <point x="180" y="657"/>
      <point x="155" y="657" type="curve" smooth="yes"/>
      <point x="132" y="657"/>
      <point x="108" y="647"/>
      <point x="91" y="636" type="curve"/>
      <point x="62" y="709" type="line"/>
      <point x="96" y="728"/>
      <point x="135" y="742"/>
      <point x="195" y="742" type="curve" smooth="yes"/>
      <point x="283" y="742"/>
      <point x="312" y="695"/>
      <point x="312" y="638" type="curve" smooth="yes"/>
    </contour>
    <contour>
      <point x="312" y="236" type="line"/>
      <point x="40" y="236" type="line"/>
      <point x="40" y="336" type="line"/>
      <point x="312" y="336" type="line"/>
    </contour>
    <contour>
      <point x="189" y="474" type="curve"/>
      <point x="189" y="554" type="line"/>
      <point x="171" y="552"/>
      <point x="152" y="538"/>
      <point x="152" y="507" type="curve" smooth="yes"/>
      <point x="152" y="483"/>
      <point x="167" y="472"/>
      <point x="182" y="472" type="curve" smooth="yes"/>
      <point x="185" y="472"/>
      <point x="188" y="473"/>
    </contour>
  </outline>
</glyph>
<glyph name="guillemotleft" format="1">
  <advance width="397"/>
  <unicode hex="00AB"/>
  <outline>
    <contour>
      <point x="229" y="140" type="line"/>
      <point x="229" y="333" type="line"/>
      <point x="360" y="434" type="line"/>
      <point x="360" y="269" type="line"/>
      <point x="310" y="235" type="line"/>
      <point x="360" y="204" type="line"/>
      <point x="360" y="41" type="line"/>
    </contour>
    <contour>
      <point x="33" y="140" type="line"/>
      <point x="33" y="333" type="line"/>
      <point x="164" y="434" type="line"/>
      <point x="164" y="269" type="line"/>
      <point x="114" y="235" type="line"/>
      <point x="164" y="204" type="line"/>
      <point x="164" y="41" type="line"/>
    </contour>
  </outline>
</glyph>
<glyph name="degree" format="1">
  <advance width="388"/>
  <unicode hex="00B0"/>
  <outline>
    <contour>
      <point x="367" y="568" type="curve" smooth="yes"/>
      <point x="367" y="472"/>
      <point x="291" y="394"/>
      <point x="193" y="394" type="curve" smooth="yes"/>
      <point x="97" y="394"/>
      <point x="19" y="472"/>
      <point x="19" y="568" type="curve" smooth="yes"/>
      <point x="19" y="666"/>
      <point x="97" y="742"/>
      <point x="193" y="742" type="curve" smooth="yes"/>
      <point x="291" y="742"/>
      <point x="367" y="666"/>
    </contour>
    <contour>
      <point x="263" y="568" type="curve" smooth="yes"/>
      <point x="263" y="611"/>
      <point x="236" y="648"/>
      <point x="193" y="648" type="curve" smooth="yes"/>
      <point x="150" y="648"/>
      <point x="123" y="611"/>
      <point x="123" y="568" type="curve" smooth="yes"/>
      <point x="123" y="525"/>
      <point x="150" y="488"/>
      <point x="193" y="488" type="curve" smooth="yes"/>
      <point x="236" y="488"/>
      <point x="263" y="525"/>
    </contour>
  </outline>
</glyph>
<glyph name="twosuperior" format="1">
  <advance width="354"/>
  <unicode hex="00B2"/>
  <outline>
    <contour>
      <point x="243" y="449" type="line"/>
      <point x="303" y="449" type="line"/>
      <point x="303" y="327" type="line"/>
      <point x="38" y="327" type="line"/>
      <point x="153" y="517" type="line" smooth="yes"/>
      <point x="164" y="535"/>
      <point x="179" y="575"/>
      <point x="179" y="599" type="curve" smooth="yes"/>
      <point x="179" y="608"/>
      <point x="174" y="617"/>
      <point x="166" y="617" type="curve" smooth="yes"/>
      <point x="156" y="617"/>
      <point x="152" y="604"/>
      <point x="152" y="588" type="curve" smooth="yes"/>
      <point x="152" y="569" type="line"/>
      <point x="40" y="569" type="line"/>
      <point x="40" y="590" type="line" smooth="yes"/>
      <point x="40" y="666"/>
      <point x="83" y="740"/>
      <point x="172" y="740" type="curve" smooth="yes"/>
      <point x="285" y="740"/>
      <point x="304" y="653"/>
      <point x="304" y="611" type="curve" smooth="yes"/>
      <point x="304" y="578"/>
      <point x="297" y="549"/>
      <point x="282" y="521" type="curve" smooth="yes"/>
    </contour>
  </outline>
</glyph>
<glyph name="acute" format="1">
  <advance width="450"/>
  <unicode hex="00B4"/>
  <outline>
    <contour>
      <point x="247" y="508" type="line"/>
      <point x="149" y="508" type="line"/>
      <point x="218" y="685" type="line"/>
      <point x="346" y="685" type="line"/>
    </contour>
  </outline>
</glyph>
<glyph name="paragraph" format="1">
  <advance width="709"/>
  <unicode hex="00B6"/>
  <outline>
    <contour>
      <point x="654" y="-179" type="line"/>
      <point x="484" y="-179" type="line"/>
      <point x="484" y="612" type="line"/>
      <point x="429" y="612" type="line"/>
      <point x="429" y="-179" type="line"/>
      <point x="309" y="-179" type="line"/>
      <point x="309" y="215" type="line"/>
      <point x="292" y="215" type="line" smooth="yes"/>
      <point x="137" y="215"/>
      <point x="26" y="310"/>
      <point x="26" y="474" type="curve" smooth="yes"/>
      <point x="26" y="648"/>
      <point x="149" y="730"/>
      <point x="305" y="730" type="curve" smooth="yes"/>
      <point x="654" y="730" type="line"/>
    </contour>
    <contour>
      <point x="309" y="337" type="line"/>
      <point x="309" y="609" type="line"/>
      <point x="307" y="609" type="line" smooth="yes"/>
      <point x="255" y="609"/>
      <point x="229" y="565"/>
      <point x="229" y="477" type="curve" smooth="yes"/>
      <point x="229" y="387"/>
      <point x="255" y="337"/>
      <point x="305" y="337" type="curve" smooth="yes"/>
    </contour>
  </outline>
</glyph>
<glyph name="periodcentered" format="1">
  <advance width="241"/>
  <unicode hex="00B7"/>
  <outline>
    <contour>
      <point x="211" y="157" type="line"/>
      <point x="29" y="157" type="line"/>
      <point x="29" y="358" type="line"/>
      <point x="211" y="358" type="line"/>
    </contour>
  </outline>
</glyph>
<glyph name="cedilla" format="1">
  <advance width="450"/>
  <unicode hex="00B8"/>
  <outline>
    <contour>
      <point x="307" y="-106" type="curve" smooth="yes"/>
      <point x="307" y="-160"/>
      <point x="266" y="-199"/>
      <point x="217" y="-199" type="curve" smooth="yes"/>
      <point x="179" y="-199"/>
      <point x="139" y="-187"/>
      <point x="111" y="-163" type="curve"/>
      <point x="146" y="-116" type="line"/>
      <point x="165" y="-129"/>
      <point x="185" y="-138"/>
      <point x="203" y="-138" type="curve" smooth="yes"/>
      <point x="223" y="-138"/>
      <point x="233" y="-128"/>
      <point x="233" y="-113" type="curve" smooth="yes"/>
      <point x="233" y="-99"/>
      <point x="223" y="-88"/>
      <point x="201" y="-88" type="curve" smooth="yes"/>
      <point x="193" y="-88"/>
      <point x="177" y="-91"/>
      <point x="165" y="-96" type="curve"/>
      <point x="144" y="-56" type="line"/>
      <point x="186" y="-6" type="line"/>
      <point x="262" y="-6" type="line"/>
      <point x="230" y="-36" type="line"/>
      <point x="283" y="-36"/>
      <point x="307" y="-73"/>
    </contour>
  </outline>
</glyph>
<glyph name="ordmasculine" format="1">
  <advance width="374"/>
  <unicode hex="00BA"/>
  <outline>
    <contour>
      <point x="334" y="564" type="curve" smooth="yes"/>
      <point x="334" y="459"/>
      <point x="277" y="387"/>
      <point x="187" y="387" type="curve" smooth="yes"/>
      <point x="97" y="387"/>
      <point x="40" y="459"/>
      <point x="40" y="564" type="curve" smooth="yes"/>
      <point x="40" y="668"/>
      <point x="97" y="741"/>
      <point x="187" y="741" type="curve" smooth="yes"/>
      <point x="277" y="741"/>
      <point x="334" y="668"/>
    </contour>
    <contour>
      <point x="334" y="236" type="line"/>
      <point x="40" y="236" type="line"/>
      <point x="40" y="336" type="line"/>
      <point x="334" y="336" type="line"/>
    </contour>
    <contour>
      <point x="210" y="564" type="curve" smooth="yes"/>
      <point x="210" y="620"/>
      <point x="202" y="642"/>
      <point x="187" y="642" type="curve" smooth="yes"/>
      <point x="172" y="642"/>
      <point x="164" y="620"/>
      <point x="164" y="564" type="curve" smooth="yes"/>
      <point x="164" y="507"/>
      <point x="172" y="487"/>
      <point x="187" y="487" type="curve" smooth="yes"/>
      <point x="202" y="487"/>
      <point x="210" y="507"/>
    </contour>
  </outline>
</glyph>
<glyph name="guillemotright" format="1">
  <advance width="397"/>
  <unicode hex="00BB"/>
  <outline>
    <contour>
      <point x="234" y="41" type="line"/>
      <point x="234" y="204" type="line"/>
      <point x="283" y="236" type="line"/>
      <point x="234" y="270" type="line"/>
      <point x="234" y="434" type="line"/>
      <point x="363" y="334" type="line"/>
      <point x="363" y="140" type="line"/>
    </contour>
    <contour>
      <point x="29" y="41" type="line"/>
      <point x="29" y="204" type="line"/>
      <point x="88" y="236" type="line"/>
      <point x="29" y="270" type="line"/>
      <point x="29" y="434" type="line"/>
      <point x="168" y="334" type="line"/>
      <point x="168" y="140" type="line"/>
    </contour>
  </outline>
</glyph>
<glyph name="onequarter" format="1">
  <advance width="701"/>
  <unicode hex="00BC"/>
  <outline>
    <contour>
      <point x="205" y="327" type="line"/>
      <point x="74" y="327" type="line"/>
      <point x="74" y="591" type="line"/>
      <point x="63" y="582"/>
      <point x="40" y="572"/>
      <point x="27" y="570" type="curve"/>
      <point x="27" y="664" type="line"/>
      <point x="54" y="670"/>
      <point x="84" y="695"/>
      <point x="92" y="729" type="curve"/>
      <point x="205" y="729" type="line"/>
    </contour>
    <contour>
      <point x="560" y="730" type="line"/>
      <point x="242" y="0" type="line"/>
      <point x="111" y="0" type="line"/>
      <point x="429" y="730" type="line"/>
    </contour>
    <contour>
      <point x="667" y="68" type="line"/>
      <point x="639" y="68" type="line"/>
      <point x="639" y="0" type="line"/>
      <point x="532" y="0" type="line"/>
      <point x="532" y="68" type="line"/>
      <point x="397" y="68" type="line"/>
      <point x="397" y="165" type="line"/>
      <point x="508" y="395" type="line"/>
      <point x="639" y="395" type="line"/>
      <point x="639" y="165" type="line"/>
      <point x="667" y="165" type="line"/>
    </contour>
    <contour>
      <point x="532" y="165" type="line"/>
      <point x="532" y="259" type="line"/>
      <point x="492" y="165" type="line"/>
    </contour>
  </outline>
</glyph>
<glyph name="onehalf" format="1">
  <advance width="722"/>
  <unicode hex="00BD"/>
  <outline>
    <contour>
      <point x="205" y="327" type="line"/>
      <point x="74" y="327" type="line"/>
      <point x="74" y="591" type="line"/>
      <point x="63" y="582"/>
      <point x="40" y="572"/>
      <point x="27" y="570" type="curve"/>
      <point x="27" y="664" type="line"/>
      <point x="54" y="670"/>
      <point x="84" y="695"/>
      <point x="92" y="729" type="curve"/>
      <point x="205" y="729" type="line"/>
    </contour>
    <contour>
      <point x="554" y="730" type="line"/>
      <point x="236" y="0" type="line"/>
      <point x="105" y="0" type="line"/>
      <point x="423" y="730" type="line"/>
    </contour>
    <contour>
      <point x="611" y="122" type="line"/>
      <point x="671" y="122" type="line"/>
      <point x="671" y="0" type="line"/>
      <point x="406" y="0" type="line"/>
      <point x="521" y="190" type="line" smooth="yes"/>
      <point x="532" y="208"/>
      <point x="547" y="248"/>
      <point x="547" y="272" type="curve" smooth="yes"/>
      <point x="547" y="281"/>
      <point x="542" y="290"/>
      <point x="534" y="290" type="curve" smooth="yes"/>
      <point x="524" y="290"/>
      <point x="520" y="277"/>
      <point x="520" y="261" type="curve" smooth="yes"/>
      <point x="520" y="242" type="line"/>
      <point x="408" y="242" type="line"/>
      <point x="408" y="263" type="line" smooth="yes"/>
      <point x="408" y="339"/>
      <point x="451" y="413"/>
      <point x="540" y="413" type="curve" smooth="yes"/>
      <point x="653" y="413"/>
      <point x="672" y="326"/>
      <point x="672" y="284" type="curve" smooth="yes"/>
      <point x="672" y="251"/>
      <point x="665" y="222"/>
      <point x="650" y="194" type="curve" smooth="yes"/>
    </contour>
  </outline>
</glyph>
<glyph name="threequarters" format="1">
  <advance width="731"/>
  <unicode hex="00BE"/>
  <outline>
    <contour>
      <point x="276" y="462" type="curve" smooth="yes"/>
      <point x="276" y="393"/>
      <point x="237" y="323"/>
      <point x="152" y="323" type="curve" smooth="yes"/>
      <point x="85" y="323"/>
      <point x="47" y="351"/>
      <point x="27" y="396" type="curve"/>
      <point x="100" y="467" type="line"/>
      <point x="107" y="447"/>
      <point x="116" y="430"/>
      <point x="132" y="430" type="curve" smooth="yes"/>
      <point x="145" y="430"/>
      <point x="155" y="440"/>
      <point x="155" y="464" type="curve" smooth="yes"/>
      <point x="155" y="491"/>
      <point x="141" y="499"/>
      <point x="121" y="499" type="curve" smooth="yes"/>
      <point x="110" y="499" type="line"/>
      <point x="110" y="575" type="line"/>
      <point x="114" y="575" type="line" smooth="yes"/>
      <point x="135" y="575"/>
      <point x="150" y="591"/>
      <point x="150" y="620" type="curve" smooth="yes"/>
      <point x="150" y="628"/>
      <point x="148" y="640"/>
      <point x="137" y="640" type="curve" smooth="yes"/>
      <point x="124" y="640"/>
      <point x="115" y="618"/>
      <point x="116" y="605" type="curve"/>
      <point x="29" y="644" type="line"/>
      <point x="39" y="700"/>
      <point x="79" y="740"/>
      <point x="148" y="740" type="curve" smooth="yes"/>
      <point x="238" y="740"/>
      <point x="270" y="678"/>
      <point x="270" y="632" type="curve" smooth="yes"/>
      <point x="270" y="592"/>
      <point x="253" y="565"/>
      <point x="231" y="549" type="curve"/>
      <point x="255" y="536"/>
      <point x="276" y="502"/>
    </contour>
    <contour>
      <point x="593" y="730" type="line"/>
      <point x="275" y="0" type="line"/>
      <point x="144" y="0" type="line"/>
      <point x="462" y="730" type="line"/>
    </contour>
    <contour>
      <point x="697" y="68" type="line"/>
      <point x="669" y="68" type="line"/>
      <point x="669" y="0" type="line"/>
      <point x="562" y="0" type="line"/>
      <point x="562" y="68" type="line"/>
      <point x="427" y="68" type="line"/>
      <point x="427" y="165" type="line"/>
      <point x="538" y="395" type="line"/>
      <point x="669" y="395" type="line"/>
      <point x="669" y="165" type="line"/>
      <point x="697" y="165" type="line"/>
    </contour>
    <contour>
      <point x="562" y="165" type="line"/>
      <point x="562" y="259" type="line"/>
      <point x="522" y="165" type="line"/>
    </contour>
  </outline>
</glyph>
<glyph name="questiondown" format="1">
  <advance width="405"/>
  <unicode hex="00BF"/>
  <outline>
    <contour>
      <point x="291" y="541" type="line"/>
      <point x="88" y="541" type="line"/>
      <point x="88" y="730" type="line"/>
      <point x="291" y="730" type="line"/>
    </contour>
    <contour>
      <point x="405" y="127" type="line"/>
      <point x="368" y="51"/>
      <point x="295" y="-12"/>
      <point x="188" y="-12" type="curve" smooth="yes"/>
      <point x="67" y="-12"/>
      <point x="9" y="62"/>
      <point x="9" y="150" type="curve" smooth="yes"/>
      <point x="9" y="220"/>
      <point x="23" y="247"/>
      <point x="69" y="319" type="curve" smooth="yes"/>
      <point x="97" y="363"/>
      <point x="106" y="396"/>
      <point x="106" y="462" type="curve" smooth="yes"/>
      <point x="106" y="478" type="line"/>
      <point x="274" y="478" type="line"/>
      <point x="274" y="434" type="line" smooth="yes"/>
      <point x="274" y="354"/>
      <point x="256" y="297"/>
      <point x="219" y="226" type="curve" smooth="yes"/>
      <point x="207" y="204"/>
      <point x="202" y="191"/>
      <point x="202" y="181" type="curve" smooth="yes"/>
      <point x="202" y="168"/>
      <point x="208" y="160"/>
      <point x="220" y="160" type="curve" smooth="yes"/>
      <point x="236" y="160"/>
      <point x="264" y="191"/>
      <point x="296" y="261" type="curve"/>
    </contour>
  </outline>
</glyph>
<glyph name="Adieresis" format="1">
  <advance width="548"/>
  <unicode hex="00C4"/>
  <outline>
    <contour>
      <point x="541" y="571" type="line"/>
      <point x="431" y="571" type="line"/>
      <point x="431" y="730" type="line"/>
      <point x="541" y="730" type="line"/>
    </contour>
    <contour>
      <point x="117" y="571" type="line"/>
      <point x="7" y="571" type="line"/>
      <point x="7" y="730" type="line"/>
      <point x="117" y="730" type="line"/>
    </contour>
    <contour>
      <point x="537" y="0" type="line"/>
      <point x="334" y="0" type="line"/>
      <point x="322" y="81" type="line"/>
      <point x="215" y="81" type="line"/>
      <point x="203" y="0" type="line"/>
      <point x="9" y="0" type="line"/>
      <point x="173" y="730" type="line"/>
      <point x="373" y="730" type="line"/>
    </contour>
    <contour>
      <point x="303" y="219" type="line"/>
      <point x="269" y="462" type="line"/>
      <point x="234" y="219" type="line"/>
    </contour>
  </outline>
</glyph>
<glyph name="Aring" format="1">
  <advance width="548"/>
  <unicode hex="00C5"/>
  <outline>
    <contour>
      <point x="359" y="731" type="curve"/>
      <point x="537" y="0" type="line"/>
      <point x="334" y="0" type="line"/>
      <point x="322" y="81" type="line"/>
      <point x="215" y="81" type="line"/>
      <point x="203" y="0" type="line"/>
      <point x="9" y="0" type="line"/>
      <point x="184" y="732" type="line"/>
      <point x="164" y="749"/>
      <point x="152" y="781"/>
      <point x="152" y="814" type="curve" smooth="yes"/>
      <point x="152" y="879"/>
      <point x="206" y="933"/>
      <point x="271" y="933" type="curve" smooth="yes"/>
      <point x="336" y="933"/>
      <point x="390" y="879"/>
      <point x="390" y="814" type="curve" smooth="yes"/>
      <point x="390" y="781"/>
      <point x="383" y="753"/>
    </contour>
    <contour>
      <point x="271" y="861" type="curve" smooth="yes"/>
      <point x="246" y="861"/>
      <point x="226" y="840"/>
      <point x="226" y="815" type="curve" smooth="yes"/>
      <point x="226" y="790"/>
      <point x="246" y="769"/>
      <point x="271" y="769" type="curve" smooth="yes"/>
      <point x="296" y="769"/>
      <point x="316" y="790"/>
      <point x="316" y="815" type="curve" smooth="yes"/>
      <point x="316" y="840"/>
      <point x="296" y="861"/>
    </contour>
    <contour>
      <point x="303" y="219" type="line"/>
      <point x="269" y="462" type="line"/>
      <point x="234" y="219" type="line"/>
    </contour>
  </outline>
</glyph>
<glyph name="AE" format="1">
  <advance width="729"/>
  <unicode hex="00C6"/>
  <outline>
    <contour>
      <point x="371" y="0" type="line"/>
      <point x="371" y="81" type="line"/>
      <point x="227" y="81" type="line"/>
      <point x="205" y="0" type="line"/>
      <point x="11" y="0" type="line"/>
      <point x="265" y="730" type="line"/>
      <point x="698" y="730" type="line"/>
      <point x="698" y="575" type="line"/>
      <point x="558" y="575" type="line"/>
      <point x="558" y="445" type="line"/>
      <point x="685" y="445" type="line"/>
      <point x="685" y="292" type="line"/>
      <point x="558" y="292" type="line"/>
      <point x="558" y="155" type="line"/>
      <point x="701" y="155" type="line"/>
      <point x="701" y="0" type="line"/>
    </contour>
    <contour>
      <point x="369" y="219" type="line"/>
      <point x="369" y="570" type="line"/>
      <point x="263" y="219" type="line"/>
    </contour>
  </outline>
</glyph>
<glyph name="Ccedilla" format="1">
  <advance width="451"/>
  <unicode hex="00C7"/>
  <outline>
    <contour>
      <point x="221" y="-5" type="line"/>
      <point x="100" y="28"/>
      <point x="22" y="163"/>
      <point x="22" y="365" type="curve" smooth="yes"/>
      <point x="22" y="598"/>
      <point x="125" y="742"/>
      <point x="280" y="742" type="curve" smooth="yes"/>
      <point x="362" y="742"/>
      <point x="409" y="699"/>
      <point x="442" y="639" type="curve"/>
      <point x="323" y="526" type="line"/>
      <point x="316" y="558"/>
      <point x="303" y="572"/>
      <point x="280" y="572" type="curve" smooth="yes"/>
      <point x="238" y="572"/>
      <point x="222" y="491"/>
      <point x="222" y="365" type="curve" smooth="yes"/>
      <point x="222" y="239"/>
      <point x="238" y="157"/>
      <point x="280" y="157" type="curve" smooth="yes"/>
      <point x="306" y="157"/>
      <point x="321" y="181"/>
      <point x="335" y="203" type="curve"/>
      <point x="439" y="82" type="line"/>
      <point x="407" y="32"/>
      <point x="357" y="-7"/>
      <point x="292" y="-12" type="curve"/>
      <point x="266" y="-36" type="line"/>
      <point x="319" y="-36"/>
      <point x="343" y="-73"/>
      <point x="343" y="-106" type="curve" smooth="yes"/>
      <point x="343" y="-160"/>
      <point x="302" y="-199"/>
      <point x="253" y="-199" type="curve" smooth="yes"/>
      <point x="215" y="-199"/>
      <point x="175" y="-187"/>
      <point x="147" y="-163" type="curve"/>
      <point x="182" y="-116" type="line"/>
      <point x="201" y="-129"/>
      <point x="221" y="-138"/>
      <point x="239" y="-138" type="curve" smooth="yes"/>
      <point x="259" y="-138"/>
      <point x="269" y="-128"/>
      <point x="269" y="-113" type="curve" smooth="yes"/>
      <point x="269" y="-99"/>
      <point x="259" y="-88"/>
      <point x="237" y="-88" type="curve" smooth="yes"/>
      <point x="229" y="-88"/>
      <point x="213" y="-91"/>
      <point x="201" y="-96" type="curve"/>
      <point x="180" y="-56" type="line"/>
    </contour>
  </outline>
</glyph>
<glyph name="Eth" format="1">
  <advance width="564"/>
  <unicode hex="00D0"/>
  <outline>
    <contour>
      <point x="55" y="267" type="line"/>
      <point x="19" y="267" type="line"/>
      <point x="19" y="441" type="line"/>
      <point x="55" y="441" type="line"/>
      <point x="55" y="730" type="line"/>
      <point x="256" y="730" type="line" smooth="yes"/>
      <point x="451" y="730"/>
      <point x="532" y="551"/>
      <point x="532" y="365" type="curve" smooth="yes"/>
      <point x="532" y="178"/>
      <point x="451" y="0"/>
      <point x="256" y="0" type="curve" smooth="yes"/>
      <point x="55" y="0" type="line"/>
    </contour>
    <contour>
      <point x="251" y="441" type="line"/>
      <point x="277" y="441" type="line"/>
      <point x="277" y="267" type="line"/>
      <point x="251" y="267" type="line"/>
      <point x="251" y="165" type="line"/>
      <point x="261" y="165" type="line" smooth="yes"/>
      <point x="321" y="165"/>
      <point x="331" y="271"/>
      <point x="331" y="365" type="curve" smooth="yes"/>
      <point x="331" y="458"/>
      <point x="321" y="565"/>
      <point x="261" y="565" type="curve" smooth="yes"/>
      <point x="251" y="565" type="line"/>
    </contour>
  </outline>
</glyph>
<glyph name="Odieresis" format="1">
  <advance width="555"/>
  <unicode hex="00D6"/>
  <outline>
    <contour>
      <point x="444" y="666" type="curve"/>
      <point x="444" y="793" type="line"/>
      <point x="554" y="793" type="line"/>
      <point x="554" y="637" type="line"/>
      <point x="467" y="637" type="line"/>
      <point x="510" y="572"/>
      <point x="534" y="479"/>
      <point x="534" y="365" type="curve" smooth="yes"/>
      <point x="534" y="132"/>
      <point x="432" y="-12"/>
      <point x="278" y="-12" type="curve" smooth="yes"/>
      <point x="123" y="-12"/>
      <point x="22" y="132"/>
      <point x="22" y="365" type="curve" smooth="yes"/>
      <point x="22" y="479"/>
      <point x="46" y="572"/>
      <point x="89" y="637" type="curve"/>
      <point x="1" y="637" type="line"/>
      <point x="1" y="793" type="line"/>
      <point x="111" y="793" type="line"/>
      <point x="111" y="666" type="line"/>
      <point x="154" y="715"/>
      <point x="211" y="742"/>
      <point x="278" y="742" type="curve" smooth="yes"/>
      <point x="344" y="742"/>
      <point x="401" y="715"/>
    </contour>
    <contour>
      <point x="333" y="365" type="curve" smooth="yes"/>
      <point x="333" y="497"/>
      <point x="319" y="580"/>
      <point x="278" y="580" type="curve" smooth="yes"/>
      <point x="236" y="580"/>
      <point x="222" y="497"/>
      <point x="222" y="365" type="curve" smooth="yes"/>
      <point x="222" y="233"/>
      <point x="236" y="150"/>
      <point x="278" y="150" type="curve" smooth="yes"/>
      <point x="319" y="150"/>
      <point x="333" y="233"/>
    </contour>
  </outline>
</glyph>
<glyph name="multiply" format="1">
  <advance width="476"/>
  <unicode hex="00D7"/>
  <outline>
    <contour>
      <point x="331" y="333" type="line"/>
      <point x="436" y="165" type="line"/>
      <point x="309" y="74" type="line"/>
      <point x="238" y="186" type="line"/>
      <point x="165" y="70" type="line"/>
      <point x="40" y="163" type="line"/>
      <point x="145" y="331" type="line"/>
      <point x="40" y="496" type="line"/>
      <point x="170" y="589" type="line"/>
      <point x="238" y="479" type="line"/>
      <point x="308" y="590" type="line"/>
      <point x="436" y="501" type="line"/>
    </contour>
  </outline>
</glyph>
<glyph name="Oslash" format="1">
  <advance width="555"/>
  <unicode hex="00D8"/>
  <outline>
    <contour>
      <point x="69" y="129" type="line"/>
      <point x="38" y="190"/>
      <point x="22" y="270"/>
      <point x="22" y="365" type="curve" smooth="yes"/>
      <point x="22" y="598"/>
      <point x="123" y="742"/>
      <point x="278" y="742" type="curve" smooth="yes"/>
      <point x="353" y="742"/>
      <point x="415" y="708"/>
      <point x="459" y="647" type="curve"/>
      <point x="511" y="715" type="line"/>
      <point x="565" y="661" type="line"/>
      <point x="499" y="574" type="line"/>
      <point x="522" y="516"/>
      <point x="534" y="446"/>
      <point x="534" y="365" type="curve" smooth="yes"/>
      <point x="534" y="132"/>
      <point x="432" y="-12"/>
      <point x="278" y="-12" type="curve" smooth="yes"/>
      <point x="212" y="-12"/>
      <point x="156" y="14"/>
      <point x="113" y="62" type="curve"/>
      <point x="63" y="-5" type="line"/>
      <point x="8" y="48" type="line"/>
    </contour>
    <contour>
      <point x="222" y="332" type="curve"/>
      <point x="328" y="473" type="line"/>
      <point x="322" y="541"/>
      <point x="306" y="580"/>
      <point x="278" y="580" type="curve" smooth="yes"/>
      <point x="236" y="580"/>
      <point x="222" y="497"/>
      <point x="222" y="365" type="curve" smooth="yes"/>
      <point x="222" y="354"/>
      <point x="222" y="343"/>
    </contour>
    <contour>
      <point x="333" y="353" type="curve"/>
      <point x="232" y="219" type="line"/>
      <point x="241" y="175"/>
      <point x="255" y="150"/>
      <point x="278" y="150" type="curve" smooth="yes"/>
      <point x="318" y="150"/>
      <point x="332" y="228"/>
    </contour>
  </outline>
</glyph>
<glyph name="Udieresis" format="1">
  <advance width="533"/>
  <unicode hex="00DC"/>
  <outline>
    <contour>
      <point x="400" y="794" type="line"/>
      <point x="290" y="794" type="line"/>
      <point x="290" y="950" type="line"/>
      <point x="400" y="950" type="line"/>
    </contour>
    <contour>
      <point x="242" y="794" type="line"/>
      <point x="132" y="794" type="line"/>
      <point x="132" y="950" type="line"/>
      <point x="242" y="950" type="line"/>
    </contour>
    <contour>
      <point x="503" y="253" type="line" smooth="yes"/>
      <point x="503" y="88"/>
      <point x="423" y="-12"/>
      <point x="267" y="-12" type="curve" smooth="yes"/>
      <point x="110" y="-12"/>
      <point x="30" y="88"/>
      <point x="30" y="253" type="curve" smooth="yes"/>
      <point x="30" y="730" type="line"/>
      <point x="233" y="730" type="line"/>
      <point x="233" y="224" type="line" smooth="yes"/>
      <point x="233" y="177"/>
      <point x="243" y="156"/>
      <point x="267" y="156" type="curve" smooth="yes"/>
      <point x="290" y="156"/>
      <point x="300" y="177"/>
      <point x="300" y="224" type="curve" smooth="yes"/>
      <point x="300" y="730" type="line"/>
      <point x="503" y="730" type="line"/>
    </contour>
  </outline>
</glyph>
<glyph name="Thorn" format="1">
  <advance width="477"/>
  <unicode hex="00DE"/>
  <outline>
    <contour>
      <point x="467" y="351" type="curve" smooth="yes"/>
      <point x="467" y="176"/>
      <point x="360" y="99"/>
      <point x="233" y="97" type="curve"/>
      <point x="233" y="96" type="line"/>
      <point x="233" y="0" type="line"/>
      <point x="33" y="0" type="line"/>
      <point x="33" y="730" type="line"/>
      <point x="212" y="730" type="line"/>
      <point x="212" y="593" type="line"/>
      <point x="232" y="593" type="line" smooth="yes"/>
      <point x="349" y="593"/>
      <point x="467" y="524"/>
    </contour>
    <contour>
      <point x="283" y="348" type="curve" smooth="yes"/>
      <point x="283" y="416"/>
      <point x="263" y="443"/>
      <point x="231" y="447" type="curve"/>
      <point x="231" y="446" type="line"/>
      <point x="231" y="247" type="line"/>
      <point x="231" y="246" type="line"/>
      <point x="263" y="251"/>
      <point x="283" y="279"/>
    </contour>
  </outline>
</glyph>
<glyph name="germandbls" format="1">
  <advance width="459"/>
  <unicode hex="00DF"/>
  <outline>
    <contour>
      <point x="434" y="236" type="curve" smooth="yes"/>
      <point x="434" y="92"/>
      <point x="383" y="0"/>
      <point x="213" y="0" type="curve"/>
      <point x="213" y="137" type="line"/>
      <point x="256" y="132"/>
      <point x="272" y="164"/>
      <point x="272" y="246" type="curve" smooth="yes"/>
      <point x="272" y="364"/>
      <point x="253" y="373"/>
      <point x="217" y="373" type="curve"/>
      <point x="217" y="461" type="line"/>
      <point x="237" y="461"/>
      <point x="255" y="478"/>
      <point x="255" y="545" type="curve" smooth="yes"/>
      <point x="255" y="593"/>
      <point x="244" y="610"/>
      <point x="222" y="610" type="curve" smooth="yes"/>
      <point x="205" y="610"/>
      <point x="189" y="599"/>
      <point x="189" y="561" type="curve" smooth="yes"/>
      <point x="189" y="0" type="line"/>
      <point x="25" y="0" type="line"/>
      <point x="25" y="0"/>
      <point x="25" y="312"/>
      <point x="25" y="525" type="curve" smooth="yes"/>
      <point x="25" y="661"/>
      <point x="87" y="742"/>
      <point x="222" y="742" type="curve" smooth="yes"/>
      <point x="354" y="742"/>
      <point x="410" y="650"/>
      <point x="410" y="574" type="curve" smooth="yes"/>
      <point x="410" y="498"/>
      <point x="397" y="456"/>
      <point x="359" y="421" type="curve"/>
      <point x="401" y="392"/>
      <point x="434" y="346"/>
    </contour>
  </outline>
</glyph>
<glyph name="ae" format="1">
  <advance width="616"/>
  <unicode hex="00E6"/>
  <outline>
    <contour>
      <point x="265" y="75" type="curve"/>
      <point x="223" y="33" type="line" smooth="yes"/>
      <point x="198" y="8"/>
      <point x="165" y="-8"/>
      <point x="124" y="-8" type="curve" smooth="yes"/>
      <point x="64" y="-8"/>
      <point x="14" y="35"/>
      <point x="14" y="125" type="curve" smooth="yes"/>
      <point x="14" y="222"/>
      <point x="99" y="281"/>
      <point x="225" y="288" type="curve"/>
      <point x="225" y="298" type="line" smooth="yes"/>
      <point x="225" y="336"/>
      <point x="204" y="351"/>
      <point x="170" y="351" type="curve" smooth="yes"/>
      <point x="138" y="351"/>
      <point x="106" y="340"/>
      <point x="82" y="324" type="curve"/>
      <point x="43" y="423" type="line"/>
      <point x="80" y="447"/>
      <point x="140" y="469"/>
      <point x="205" y="469" type="curve" smooth="yes"/>
      <point x="271" y="469"/>
      <point x="293" y="447"/>
      <point x="315" y="425" type="curve"/>
      <point x="338" y="452"/>
      <point x="380" y="468"/>
      <point x="413" y="468" type="curve" smooth="yes"/>
      <point x="547" y="468"/>
      <point x="600" y="356"/>
      <point x="600" y="213" type="curve" smooth="yes"/>
      <point x="600" y="205"/>
      <point x="600" y="195"/>
      <point x="600" y="186" type="curve"/>
      <point x="386" y="186" type="line"/>
      <point x="390" y="134"/>
      <point x="413" y="110"/>
      <point x="443" y="110" type="curve" smooth="yes"/>
      <point x="472" y="110"/>
      <point x="496" y="126"/>
      <point x="519" y="158" type="curve"/>
      <point x="595" y="76" type="line"/>
      <point x="559" y="26"/>
      <point x="504" y="-12"/>
      <point x="424" y="-12" type="curve" smooth="yes"/>
      <point x="355" y="-12"/>
      <point x="299" y="17"/>
    </contour>
    <contour>
      <point x="449" y="267" type="line"/>
      <point x="449" y="326"/>
      <point x="441" y="362"/>
      <point x="417" y="362" type="curve" smooth="yes"/>
      <point x="395" y="362"/>
      <point x="384" y="335"/>
      <point x="384" y="267" type="curve"/>
    </contour>
    <contour>
      <point x="226" y="143" type="curve" smooth="yes"/>
      <point x="226" y="212" type="line"/>
      <point x="199" y="208"/>
      <point x="164" y="190"/>
      <point x="164" y="147" type="curve" smooth="yes"/>
      <point x="164" y="120"/>
      <point x="179" y="110"/>
      <point x="195" y="110" type="curve" smooth="yes"/>
      <point x="210" y="110"/>
      <point x="226" y="125"/>
    </contour>
  </outline>
</glyph>
<glyph name="ccedilla" format="1">
  <advance width="387"/>
  <unicode hex="00E7"/>
  <outline>
    <contour>
      <point x="167" y="-7" type="line"/>
      <point x="74" y="15"/>
      <point x="14" y="105"/>
      <point x="14" y="230" type="curve" smooth="yes"/>
      <point x="14" y="373"/>
      <point x="96" y="473"/>
      <point x="213" y="473" type="curve" smooth="yes"/>
      <point x="302" y="473"/>
      <point x="353" y="419"/>
      <point x="376" y="359" type="curve"/>
      <point x="247" y="279" type="line"/>
      <point x="243" y="314"/>
      <point x="232" y="332"/>
      <point x="215" y="332" type="curve" smooth="yes"/>
      <point x="197" y="332"/>
      <point x="188" y="305"/>
      <point x="188" y="230" type="curve" smooth="yes"/>
      <point x="188" y="154"/>
      <point x="198" y="129"/>
      <point x="218" y="129" type="curve" smooth="yes"/>
      <point x="236" y="129"/>
      <point x="246" y="151"/>
      <point x="251" y="186" type="curve"/>
      <point x="377" y="106" type="line"/>
      <point x="353" y="39"/>
      <point x="302" y="-1"/>
      <point x="240" y="-10" type="curve"/>
      <point x="212" y="-36" type="line"/>
      <point x="265" y="-36"/>
      <point x="289" y="-73"/>
      <point x="289" y="-106" type="curve" smooth="yes"/>
      <point x="289" y="-160"/>
      <point x="248" y="-199"/>
      <point x="199" y="-199" type="curve" smooth="yes"/>
      <point x="161" y="-199"/>
      <point x="121" y="-187"/>
      <point x="93" y="-163" type="curve"/>
      <point x="128" y="-116" type="line"/>
      <point x="147" y="-129"/>
      <point x="167" y="-138"/>
      <point x="185" y="-138" type="curve" smooth="yes"/>
      <point x="205" y="-138"/>
      <point x="215" y="-128"/>
      <point x="215" y="-113" type="curve" smooth="yes"/>
      <point x="215" y="-99"/>
      <point x="205" y="-88"/>
      <point x="183" y="-88" type="curve" smooth="yes"/>
      <point x="175" y="-88"/>
      <point x="159" y="-91"/>
      <point x="147" y="-96" type="curve"/>
      <point x="126" y="-56" type="line"/>
    </contour>
  </outline>
</glyph>
<glyph name="eth" format="1">
  <advance width="381"/>
  <unicode hex="00F0"/>
  <outline>
    <contour>
      <point x="186" y="513" type="curve"/>
      <point x="107" y="466" type="line"/>
      <point x="61" y="554" type="line"/>
      <point x="133" y="597" type="line"/>
      <point x="116" y="620"/>
      <point x="97" y="640"/>
      <point x="79" y="655" type="curve"/>
      <point x="178" y="755" type="line"/>
      <point x="206" y="730"/>
      <point x="232" y="701"/>
      <point x="255" y="669" type="curve"/>
      <point x="322" y="709" type="line"/>
      <point x="366" y="621" type="line"/>
      <point x="306" y="585" type="line"/>
      <point x="347" y="504"/>
      <point x="372" y="404"/>
      <point x="372" y="282" type="curve" smooth="yes"/>
      <point x="372" y="77"/>
      <point x="291" y="-12"/>
      <point x="191" y="-12" type="curve" smooth="yes"/>
      <point x="83" y="-12"/>
      <point x="9" y="95"/>
      <point x="9" y="222" type="curve" smooth="yes"/>
      <point x="9" y="364"/>
      <point x="70" y="454"/>
      <point x="154" y="454" type="curve" smooth="yes"/>
      <point x="182" y="454"/>
      <point x="208" y="439"/>
      <point x="219" y="423" type="curve"/>
      <point x="216" y="448"/>
      <point x="203" y="481"/>
    </contour>
    <contour>
      <point x="190" y="297" type="curve" smooth="yes"/>
      <point x="167" y="297"/>
      <point x="158" y="266"/>
      <point x="158" y="222" type="curve" smooth="yes"/>
      <point x="158" y="181"/>
      <point x="170" y="151"/>
      <point x="190" y="151" type="curve" smooth="yes"/>
      <point x="213" y="151"/>
      <point x="221" y="181"/>
      <point x="221" y="231" type="curve" smooth="yes"/>
      <point x="221" y="266"/>
      <point x="212" y="297"/>
    </contour>
  </outline>
</glyph>
<glyph name="oslash" format="1">
  <advance width="432"/>
  <unicode hex="00F8"/>
  <outline>
    <contour>
      <point x="330" y="437" type="curve"/>
      <point x="365" y="485" type="line"/>
      <point x="425" y="429" type="line"/>
      <point x="385" y="372" type="line"/>
      <point x="407" y="333"/>
      <point x="418" y="285"/>
      <point x="418" y="230" type="curve" smooth="yes"/>
      <point x="418" y="86"/>
      <point x="339" y="-12"/>
      <point x="216" y="-12" type="curve" smooth="yes"/>
      <point x="179" y="-12"/>
      <point x="145" y="-3"/>
      <point x="117" y="14" type="curve"/>
      <point x="81" y="-31" type="line"/>
      <point x="19" y="23" type="line"/>
      <point x="57" y="70" type="line"/>
      <point x="29" y="112"/>
      <point x="14" y="166"/>
      <point x="14" y="230" type="curve" smooth="yes"/>
      <point x="14" y="373"/>
      <point x="93" y="473"/>
      <point x="216" y="473" type="curve" smooth="yes"/>
      <point x="260" y="473"/>
      <point x="299" y="460"/>
    </contour>
    <contour>
      <point x="247" y="230" type="curve" smooth="yes"/>
      <point x="247" y="307"/>
      <point x="237" y="337"/>
      <point x="216" y="337" type="curve" smooth="yes"/>
      <point x="195" y="337"/>
      <point x="185" y="307"/>
      <point x="185" y="230" type="curve" smooth="yes"/>
      <point x="185" y="152"/>
      <point x="195" y="124"/>
      <point x="216" y="124" type="curve" smooth="yes"/>
      <point x="237" y="124"/>
      <point x="247" y="152"/>
    </contour>
  </outline>
</glyph>
<glyph name="thorn" format="1">
  <advance width="436"/>
  <unicode hex="00FE"/>
  <outline>
    <contour>
      <point x="419" y="231" type="curve" smooth="yes"/>
      <point x="419" y="104"/>
      <point x="375" y="-7"/>
      <point x="281" y="-7" type="curve" smooth="yes"/>
      <point x="246" y="-7"/>
      <point x="220" y="16"/>
      <point x="199" y="48" type="curve"/>
      <point x="199" y="-179" type="line"/>
      <point x="26" y="-179" type="line"/>
      <point x="26" y="730" type="line"/>
      <point x="199" y="730" type="line"/>
      <point x="199" y="415" type="line"/>
      <point x="220" y="446"/>
      <point x="246" y="470"/>
      <point x="281" y="470" type="curve" smooth="yes"/>
      <point x="375" y="470"/>
      <point x="419" y="358"/>
    </contour>
    <contour>
      <point x="254" y="230" type="curve" smooth="yes"/>
      <point x="254" y="307"/>
      <point x="244" y="337"/>
      <point x="223" y="337" type="curve" smooth="yes"/>
      <point x="202" y="337"/>
      <point x="192" y="307"/>
      <point x="192" y="230" type="curve" smooth="yes"/>
      <point x="192" y="152"/>
      <point x="202" y="124"/>
      <point x="223" y="124" type="curve" smooth="yes"/>
      <point x="244" y="124"/>
      <point x="254" y="152"/>
    </contour>
  </outline>
</glyph>
<glyph name="dotlessi" format="1">
  <advance width="228"/>
  <unicode hex="0131"/>
  <outline>
    <contour>
      <point x="201" y="0" type="line"/>
      <point x="27" y="0" type="line"/>
      <point x="27" y="461" type="line"/>
      <point x="201" y="461" type="line"/>
    </contour>
  </outline>
</glyph>
<glyph name="Lslash" format="1">
  <advance width="448"/>
  <unicode hex="0141"/>
  <outline>
    <contour>
      <point x="73" y="266" type="line"/>
      <point x="43" y="253" type="line"/>
      <point x="-5" y="380" type="line"/>
      <point x="73" y="413" type="line"/>
      <point x="73" y="730" type="line"/>
      <point x="274" y="730" type="line"/>
      <point x="274" y="498" type="line"/>
      <point x="350" y="530" type="line"/>
      <point x="403" y="407" type="line"/>
      <point x="274" y="352" type="line"/>
      <point x="274" y="157" type="line"/>
      <point x="404" y="157" type="line"/>
      <point x="404" y="0" type="line"/>
      <point x="73" y="0" type="line"/>
    </contour>
  </outline>
</glyph>
<glyph name="lslash" format="1">
  <advance width="318"/>
  <unicode hex="0142"/>
  <outline>
    <contour>
      <point x="247" y="500" type="line"/>
      <point x="293" y="519" type="line"/>
      <point x="346" y="394" type="line"/>
      <point x="247" y="353" type="line"/>
      <point x="247" y="0" type="line"/>
      <point x="73" y="0" type="line"/>
      <point x="73" y="281" type="line"/>
      <point x="40" y="267" type="line"/>
      <point x="-14" y="392" type="line"/>
      <point x="73" y="428" type="line"/>
      <point x="73" y="730" type="line"/>
      <point x="247" y="730" type="line"/>
    </contour>
  </outline>
</glyph>
<glyph name="OE" format="1">
  <advance width="702"/>
  <unicode hex="0152"/>
  <outline>
    <contour>
      <point x="377" y="687" type="curve"/>
      <point x="377" y="730" type="line"/>
      <point x="671" y="730" type="line"/>
      <point x="671" y="575" type="line"/>
      <point x="536" y="575" type="line"/>
      <point x="536" y="445" type="line"/>
      <point x="658" y="445" type="line"/>
      <point x="658" y="292" type="line"/>
      <point x="536" y="292" type="line"/>
      <point x="536" y="155" type="line"/>
      <point x="674" y="155" type="line"/>
      <point x="674" y="0" type="line"/>
      <point x="377" y="0" type="line"/>
      <point x="377" y="46" type="line"/>
      <point x="358" y="7"/>
      <point x="314" y="-12"/>
      <point x="274" y="-12" type="curve" smooth="yes"/>
      <point x="119" y="-12"/>
      <point x="22" y="132"/>
      <point x="22" y="365" type="curve" smooth="yes"/>
      <point x="22" y="598"/>
      <point x="125" y="742"/>
      <point x="273" y="742" type="curve" smooth="yes"/>
      <point x="322" y="742"/>
      <point x="374" y="706"/>
    </contour>
    <contour>
      <point x="333" y="365" type="curve" smooth="yes"/>
      <point x="333" y="497"/>
      <point x="319" y="580"/>
      <point x="278" y="580" type="curve" smooth="yes"/>
      <point x="236" y="580"/>
      <point x="222" y="497"/>
      <point x="222" y="365" type="curve" smooth="yes"/>
      <point x="222" y="233"/>
      <point x="236" y="150"/>
      <point x="278" y="150" type="curve" smooth="yes"/>
      <point x="319" y="150"/>
      <point x="333" y="233"/>
    </contour>
  </outline>
</glyph>
<glyph name="oe" format="1">
  <advance width="642"/>
  <unicode hex="0153"/>
  <outline>
    <contour>
      <point x="330" y="33" type="curve"/>
      <point x="302" y="5"/>
      <point x="263" y="-12"/>
      <point x="216" y="-12" type="curve" smooth="yes"/>
      <point x="93" y="-12"/>
      <point x="14" y="86"/>
      <point x="14" y="230" type="curve" smooth="yes"/>
      <point x="14" y="373"/>
      <point x="93" y="473"/>
      <point x="216" y="473" type="curve" smooth="yes"/>
      <point x="262" y="473"/>
      <point x="300" y="455"/>
      <point x="330" y="429" type="curve"/>
      <point x="360" y="455"/>
      <point x="398" y="473"/>
      <point x="437" y="473" type="curve" smooth="yes"/>
      <point x="572" y="473"/>
      <point x="624" y="359"/>
      <point x="624" y="215" type="curve" smooth="yes"/>
      <point x="624" y="207"/>
      <point x="624" y="197"/>
      <point x="624" y="188" type="curve"/>
      <point x="408" y="188" type="line"/>
      <point x="412" y="135"/>
      <point x="436" y="111"/>
      <point x="466" y="111" type="curve" smooth="yes"/>
      <point x="495" y="111"/>
      <point x="519" y="127"/>
      <point x="543" y="159" type="curve"/>
      <point x="619" y="77" type="line"/>
      <point x="583" y="26"/>
      <point x="528" y="-12"/>
      <point x="447" y="-12" type="curve" smooth="yes"/>
      <point x="402" y="-12"/>
      <point x="360" y="5"/>
    </contour>
    <contour>
      <point x="472" y="270" type="line"/>
      <point x="472" y="329"/>
      <point x="463" y="366"/>
      <point x="439" y="366" type="curve" smooth="yes"/>
      <point x="420" y="366"/>
      <point x="407" y="336"/>
      <point x="406" y="270" type="curve"/>
    </contour>
    <contour>
      <point x="247" y="230" type="curve" smooth="yes"/>
      <point x="247" y="307"/>
      <point x="237" y="337"/>
      <point x="216" y="337" type="curve" smooth="yes"/>
      <point x="195" y="337"/>
      <point x="185" y="307"/>
      <point x="185" y="230" type="curve" smooth="yes"/>
      <point x="185" y="152"/>
      <point x="195" y="124"/>
      <point x="216" y="124" type="curve" smooth="yes"/>
      <point x="237" y="124"/>
      <point x="247" y="152"/>
    </contour>
  </outline>
</glyph>
<glyph name="florin" format="1">
  <advance width="314"/>
  <unicode hex="0192"/>
  <outline>
    <contour>
      <point x="4" y="-179" type="curve"/>
      <point x="14" y="-3" type="line"/>
      <point x="14" y="-3"/>
      <point x="31" y="-3"/>
      <point x="33" y="-3" type="curve" smooth="yes"/>
      <point x="46" y="-3"/>
      <point x="49" y="16"/>
      <point x="51" y="48" type="curve" smooth="yes"/>
      <point x="67" y="302" type="line"/>
      <point x="33" y="302" type="line"/>
      <point x="42" y="450" type="line"/>
      <point x="76" y="450" type="line"/>
      <point x="84" y="568" type="line" smooth="yes"/>
      <point x="91" y="675"/>
      <point x="131" y="742"/>
      <point x="214" y="742" type="curve" smooth="yes"/>
      <point x="247" y="742"/>
      <point x="292" y="742"/>
      <point x="299" y="742" type="curve"/>
      <point x="288" y="576" type="line"/>
      <point x="282" y="576"/>
      <point x="266" y="576"/>
      <point x="263" y="576" type="curve" smooth="yes"/>
      <point x="251" y="576"/>
      <point x="248" y="553"/>
      <point x="247" y="527" type="curve" smooth="yes"/>
      <point x="243" y="450" type="line"/>
      <point x="278" y="450" type="line"/>
      <point x="269" y="302" type="line"/>
      <point x="234" y="302" type="line"/>
      <point x="214" y="-9" type="line" smooth="yes"/>
      <point x="208" y="-106"/>
      <point x="178" y="-179"/>
      <point x="83" y="-179" type="curve" smooth="yes"/>
      <point x="74" y="-179"/>
      <point x="4" y="-179"/>
    </contour>
  </outline>
</glyph>
<glyph name="circumflex" format="1">
  <advance width="450"/>
  <unicode hex="02C6"/>
  <outline>
    <contour>
      <point x="172" y="685" type="line"/>
      <point x="275" y="685" type="line"/>
      <point x="372" y="508" type="line"/>
      <point x="262" y="508" type="line"/>
      <point x="224" y="582" type="line"/>
      <point x="187" y="508" type="line"/>
      <point x="76" y="508" type="line"/>
    </contour>
  </outline>
</glyph>
<glyph name="caron" format="1">
  <advance width="450"/>
  <unicode hex="02C7"/>
  <outline>
    <contour>
      <point x="172" y="508" type="line"/>
      <point x="76" y="685" type="line"/>
      <point x="187" y="685" type="line"/>
      <point x="224" y="611" type="line"/>
      <point x="261" y="685" type="line"/>
      <point x="371" y="685" type="line"/>
      <point x="275" y="508" type="line"/>
    </contour>
  </outline>
</glyph>
<glyph name="breve" format="1">
  <advance width="450"/>
  <unicode hex="02D8"/>
  <outline>
    <contour>
      <point x="403" y="681" type="line"/>
      <point x="397" y="591"/>
      <point x="331" y="508"/>
      <point x="225" y="508" type="curve" smooth="yes"/>
      <point x="123" y="508"/>
      <point x="53" y="588"/>
      <point x="48" y="681" type="curve"/>
      <point x="139" y="681" type="line"/>
      <point x="145" y="650"/>
      <point x="171" y="605"/>
      <point x="225" y="605" type="curve" smooth="yes"/>
      <point x="279" y="605"/>
      <point x="307" y="650"/>
      <point x="312" y="681" type="curve"/>
    </contour>
  </outline>
</glyph>
<glyph name="dotaccent" format="1">
  <advance width="450"/>
  <unicode hex="02D9"/>
  <outline>
    <contour>
      <point x="303" y="508" type="line"/>
      <point x="143" y="508" type="line"/>
      <point x="143" y="657" type="line"/>
      <point x="303" y="657" type="line"/>
    </contour>
  </outline>
</glyph>
<glyph name="ring" format="1">
  <advance width="450"/>
  <unicode hex="02DA"/>
  <outline>
    <contour>
      <point x="225" y="745" type="curve" smooth="yes"/>
      <point x="290" y="745"/>
      <point x="344" y="691"/>
      <point x="344" y="626" type="curve" smooth="yes"/>
      <point x="344" y="561"/>
      <point x="290" y="508"/>
      <point x="225" y="508" type="curve" smooth="yes"/>
      <point x="160" y="508"/>
      <point x="106" y="561"/>
      <point x="106" y="626" type="curve" smooth="yes"/>
      <point x="106" y="691"/>
      <point x="160" y="745"/>
    </contour>
    <contour>
      <point x="225" y="673" type="curve" smooth="yes"/>
      <point x="200" y="673"/>
      <point x="180" y="652"/>
      <point x="180" y="627" type="curve" smooth="yes"/>
      <point x="180" y="602"/>
      <point x="200" y="581"/>
      <point x="225" y="581" type="curve" smooth="yes"/>
      <point x="250" y="581"/>
      <point x="270" y="602"/>
      <point x="270" y="627" type="curve" smooth="yes"/>
      <point x="270" y="652"/>
      <point x="250" y="673"/>
    </contour>
  </outline>
</glyph>
<glyph name="ogonek" format="1">
  <advance width="450"/>
  <unicode hex="02DB"/>
  <outline>
    <contour>
      <point x="320" y="-153" type="line"/>
      <point x="296" y="-178"/>
      <point x="256" y="-194"/>
      <point x="205" y="-194" type="curve" smooth="yes"/>
      <point x="134" y="-194"/>
      <point x="80" y="-154"/>
      <point x="80" y="-100" type="curve" smooth="yes"/>
      <point x="80" y="-53"/>
      <point x="116" y="-14"/>
      <point x="181" y="12" type="curve"/>
      <point x="267" y="12" type="line"/>
      <point x="208" y="-26"/>
      <point x="181" y="-54"/>
      <point x="181" y="-88" type="curve" smooth="yes"/>
      <point x="181" y="-117"/>
      <point x="202" y="-133"/>
      <point x="229" y="-133" type="curve" smooth="yes"/>
      <point x="253" y="-133"/>
      <point x="274" y="-123"/>
      <point x="290" y="-112" type="curve"/>
    </contour>
  </outline>
</glyph>
<glyph name="tilde" format="1">
  <advance width="450"/>
  <unicode hex="02DC"/>
  <outline>
    <contour>
      <point x="234" y="525" type="curve" smooth="yes"/>
      <point x="208" y="539"/>
      <point x="198" y="548"/>
      <point x="180" y="548" type="curve" smooth="yes"/>
      <point x="162" y="548"/>
      <point x="155" y="534"/>
      <point x="154" y="508" type="curve"/>
      <point x="67" y="508" type="line"/>
      <point x="64" y="593"/>
      <point x="88" y="659"/>
      <point x="164" y="659" type="curve" smooth="yes"/>
      <point x="195" y="659"/>
      <point x="217" y="649"/>
      <point x="236" y="639" type="curve" smooth="yes"/>
      <point x="257" y="628"/>
      <point x="272" y="617"/>
      <point x="288" y="617" type="curve" smooth="yes"/>
      <point x="304" y="617"/>
      <point x="306" y="635"/>
      <point x="306" y="658" type="curve"/>
      <point x="393" y="658" type="line"/>
      <point x="394" y="580"/>
      <point x="376" y="505"/>
      <point x="297" y="505" type="curve" smooth="yes"/>
      <point x="274" y="505"/>
      <point x="253" y="515"/>
    </contour>
  </outline>
</glyph>
<glyph name="hungarumlaut" format="1">
  <advance width="450"/>
  <unicode hex="02DD"/>
  <outline>
    <contour>
      <point x="437" y="695" type="line"/>
      <point x="344" y="508" type="line"/>
      <point x="205" y="508" type="line"/>
      <point x="298" y="695" type="line"/>
    </contour>
    <contour>
      <point x="246" y="695" type="line"/>
      <point x="153" y="508" type="line"/>
      <point x="14" y="508" type="line"/>
      <point x="107" y="695" type="line"/>
    </contour>
  </outline>
</glyph>
<glyph name="endash" format="1">
  <advance width="379"/>
  <unicode hex="2013"/>
  <outline>
    <contour>
      <point x="357" y="186" type="line"/>
      <point x="22" y="186" type="line"/>
      <point x="22" y="329" type="line"/>
      <point x="357" y="329" type="line"/>
    </contour>
  </outline>
</glyph>
<glyph name="emdash" format="1">
  <advance width="579"/>
  <unicode hex="2014"/>
  <outline>
    <contour>
      <point x="557" y="186" type="line"/>
      <point x="22" y="186" type="line"/>
      <point x="22" y="329" type="line"/>
      <point x="557" y="329" type="line"/>
    </contour>
  </outline>
</glyph>
<glyph name="quoteleft" format="1">
  <advance width="241"/>
  <unicode hex="2018"/>
  <unicode hex="02BB"/>
  <outline>
    <contour>
      <point x="234" y="699" type="line"/>
      <point x="215" y="666"/>
      <point x="206" y="621"/>
      <point x="206" y="553" type="curve" smooth="yes"/>
      <point x="206" y="415" type="line"/>
      <point x="27" y="415" type="line"/>
      <point x="27" y="526" type="line" smooth="yes"/>
      <point x="27" y="639"/>
      <point x="77" y="710"/>
      <point x="135" y="744" type="curve"/>
    </contour>
  </outline>
</glyph>
<glyph name="quoteright" format="1">
  <advance width="241"/>
  <unicode hex="2019"/>
  <unicode hex="02BC"/>
  <outline>
    <contour>
      <point x="214" y="619" type="line" smooth="yes"/>
      <point x="214" y="506"/>
      <point x="164" y="435"/>
      <point x="106" y="401" type="curve"/>
      <point x="7" y="446" type="line"/>
      <point x="26" y="479"/>
      <point x="35" y="524"/>
      <point x="35" y="592" type="curve" smooth="yes"/>
      <point x="35" y="730" type="line"/>
      <point x="214" y="730" type="line"/>
    </contour>
  </outline>
</glyph>
<glyph name="quotedblleft" format="1">
  <advance width="457"/>
  <unicode hex="201C"/>
  <outline>
    <contour>
      <point x="450" y="699" type="line"/>
      <point x="431" y="666"/>
      <point x="422" y="621"/>
      <point x="422" y="553" type="curve" smooth="yes"/>
      <point x="422" y="415" type="line"/>
      <point x="248" y="415" type="line"/>
      <point x="248" y="526" type="line" smooth="yes"/>
      <point x="248" y="639"/>
      <point x="298" y="710"/>
      <point x="356" y="744" type="curve"/>
    </contour>
    <contour>
      <point x="229" y="699" type="line"/>
      <point x="210" y="666"/>
      <point x="201" y="621"/>
      <point x="201" y="553" type="curve" smooth="yes"/>
      <point x="201" y="415" type="line"/>
      <point x="27" y="415" type="line"/>
      <point x="27" y="526" type="line" smooth="yes"/>
      <point x="27" y="639"/>
      <point x="77" y="710"/>
      <point x="135" y="744" type="curve"/>
    </contour>
  </outline>
</glyph>
<glyph name="quotedblright" format="1">
  <advance width="457"/>
  <unicode hex="201D"/>
  <outline>
    <contour>
      <point x="430" y="619" type="line" smooth="yes"/>
      <point x="430" y="506"/>
      <point x="380" y="435"/>
      <point x="322" y="401" type="curve"/>
      <point x="228" y="446" type="line"/>
      <point x="247" y="479"/>
      <point x="256" y="524"/>
      <point x="256" y="592" type="curve" smooth="yes"/>
      <point x="256" y="730" type="line"/>
      <point x="430" y="730" type="line"/>
    </contour>
    <contour>
      <point x="209" y="619" type="line" smooth="yes"/>
      <point x="209" y="506"/>
      <point x="159" y="435"/>
      <point x="101" y="401" type="curve"/>
      <point x="7" y="446" type="line"/>
      <point x="26" y="479"/>
      <point x="35" y="524"/>
      <point x="35" y="592" type="curve" smooth="yes"/>
      <point x="35" y="730" type="line"/>
      <point x="209" y="730" type="line"/>
    </contour>
  </outline>
</glyph>
<glyph name="quotedblbase" format="1">
  <advance width="457"/>
  <unicode hex="201E"/>
  <outline>
    <contour>
      <point x="427" y="90" type="line" smooth="yes"/>
      <point x="427" y="-23"/>
      <point x="377" y="-94"/>
      <point x="319" y="-128" type="curve"/>
      <point x="225" y="-83" type="line"/>
      <point x="244" y="-50"/>
      <point x="253" y="-5"/>
      <point x="253" y="63" type="curve" smooth="yes"/>
      <point x="253" y="201" type="line"/>
      <point x="427" y="201" type="line"/>
    </contour>
    <contour>
      <point x="206" y="90" type="line" smooth="yes"/>
      <point x="206" y="-23"/>
      <point x="156" y="-94"/>
      <point x="98" y="-128" type="curve"/>
      <point x="4" y="-83" type="line"/>
      <point x="23" y="-50"/>
      <point x="32" y="-5"/>
      <point x="32" y="63" type="curve" smooth="yes"/>
      <point x="32" y="201" type="line"/>
      <point x="206" y="201" type="line"/>
    </contour>
  </outline>
</glyph>
<glyph name="dagger" format="1">
  <advance width="475"/>
  <unicode hex="2020"/>
  <outline>
    <contour>
      <point x="455" y="337" type="line"/>
      <point x="333" y="337" type="line"/>
      <point x="333" y="157" type="line"/>
      <point x="293" y="-179" type="line"/>
      <point x="182" y="-179" type="line"/>
      <point x="142" y="157" type="line"/>
      <point x="142" y="337" type="line"/>
      <point x="20" y="337" type="line"/>
      <point x="20" y="501" type="line"/>
      <point x="142" y="501" type="line"/>
      <point x="142" y="730" type="line"/>
      <point x="333" y="730" type="line"/>
      <point x="333" y="501" type="line"/>
      <point x="455" y="501" type="line"/>
    </contour>
  </outline>
</glyph>
<glyph name="daggerdbl" format="1">
  <advance width="475"/>
  <unicode hex="2021"/>
  <outline>
    <contour>
      <point x="455" y="0" type="line"/>
      <point x="333" y="0" type="line"/>
      <point x="333" y="-179" type="line"/>
      <point x="142" y="-179" type="line"/>
      <point x="142" y="0" type="line"/>
      <point x="20" y="0" type="line"/>
      <point x="20" y="164" type="line"/>
      <point x="142" y="164" type="line"/>
      <point x="142" y="165" type="line"/>
      <point x="175" y="275" type="line"/>
      <point x="142" y="386" type="line"/>
      <point x="142" y="387" type="line"/>
      <point x="20" y="387" type="line"/>
      <point x="20" y="551" type="line"/>
      <point x="142" y="551" type="line"/>
      <point x="142" y="730" type="line"/>
      <point x="333" y="730" type="line"/>
      <point x="333" y="551" type="line"/>
      <point x="455" y="551" type="line"/>
      <point x="455" y="387" type="line"/>
      <point x="333" y="387" type="line"/>
      <point x="333" y="386" type="line"/>
      <point x="300" y="276" type="line"/>
      <point x="333" y="165" type="line"/>
      <point x="333" y="164" type="line"/>
      <point x="455" y="164" type="line"/>
    </contour>
  </outline>
</glyph>
<glyph name="ellipsis" format="1">
  <advance width="783"/>
  <unicode hex="2026"/>
  <outline>
    <contour>
      <point x="743" y="0" type="line"/>
      <point x="562" y="0" type="line"/>
      <point x="562" y="201" type="line"/>
      <point x="743" y="201" type="line"/>
    </contour>
    <contour>
      <point x="482" y="0" type="line"/>
      <point x="301" y="0" type="line"/>
      <point x="301" y="201" type="line"/>
      <point x="482" y="201" type="line"/>
    </contour>
    <contour>
      <point x="221" y="0" type="line"/>
      <point x="40" y="0" type="line"/>
      <point x="40" y="201" type="line"/>
      <point x="221" y="201" type="line"/>
    </contour>
  </outline>
</glyph>
<glyph name="perthousand" format="1">
  <advance width="1025"/>
  <unicode hex="2030"/>
  <outline>
    <contour>
      <point x="311" y="553" type="curve" smooth="yes"/>
      <point x="311" y="444"/>
      <point x="251" y="364"/>
      <point x="162" y="364" type="curve" smooth="yes"/>
      <point x="73" y="364"/>
      <point x="17" y="444"/>
      <point x="17" y="553" type="curve" smooth="yes"/>
      <point x="17" y="662"/>
      <point x="77" y="742"/>
      <point x="166" y="742" type="curve" smooth="yes"/>
      <point x="255" y="742"/>
      <point x="311" y="662"/>
    </contour>
    <contour>
      <point x="635" y="730" type="line"/>
      <point x="196" y="0" type="line"/>
      <point x="65" y="0" type="line"/>
      <point x="504" y="730" type="line"/>
    </contour>
    <contour>
      <point x="1008" y="177" type="curve" smooth="yes"/>
      <point x="1008" y="68"/>
      <point x="948" y="-12"/>
      <point x="859" y="-12" type="curve" smooth="yes"/>
      <point x="770" y="-12"/>
      <point x="714" y="68"/>
      <point x="714" y="177" type="curve" smooth="yes"/>
      <point x="714" y="286"/>
      <point x="774" y="366"/>
      <point x="863" y="366" type="curve" smooth="yes"/>
      <point x="952" y="366"/>
      <point x="1008" y="286"/>
    </contour>
    <contour>
      <point x="683" y="177" type="curve" smooth="yes"/>
      <point x="683" y="68"/>
      <point x="623" y="-12"/>
      <point x="534" y="-12" type="curve" smooth="yes"/>
      <point x="445" y="-12"/>
      <point x="389" y="68"/>
      <point x="389" y="177" type="curve" smooth="yes"/>
      <point x="389" y="286"/>
      <point x="449" y="366"/>
      <point x="538" y="366" type="curve" smooth="yes"/>
      <point x="627" y="366"/>
      <point x="683" y="286"/>
    </contour>
    <contour>
      <point x="196" y="553" type="curve" smooth="yes"/>
      <point x="196" y="622"/>
      <point x="189" y="657"/>
      <point x="164" y="657" type="curve" smooth="yes"/>
      <point x="139" y="657"/>
      <point x="132" y="622"/>
      <point x="132" y="553" type="curve" smooth="yes"/>
      <point x="132" y="484"/>
      <point x="139" y="449"/>
      <point x="164" y="449" type="curve" smooth="yes"/>
      <point x="189" y="449"/>
      <point x="196" y="484"/>
    </contour>
    <contour>
      <point x="893" y="177" type="curve" smooth="yes"/>
      <point x="893" y="246"/>
      <point x="886" y="281"/>
      <point x="861" y="281" type="curve" smooth="yes"/>
      <point x="836" y="281"/>
      <point x="829" y="246"/>
      <point x="829" y="177" type="curve" smooth="yes"/>
      <point x="829" y="108"/>
      <point x="836" y="73"/>
      <point x="861" y="73" type="curve" smooth="yes"/>
      <point x="886" y="73"/>
      <point x="893" y="108"/>
    </contour>
    <contour>
      <point x="568" y="177" type="curve" smooth="yes"/>
      <point x="568" y="246"/>
      <point x="561" y="281"/>
      <point x="536" y="281" type="curve" smooth="yes"/>
      <point x="511" y="281"/>
      <point x="504" y="246"/>
      <point x="504" y="177" type="curve" smooth="yes"/>
      <point x="504" y="108"/>
      <point x="511" y="73"/>
      <point x="536" y="73" type="curve" smooth="yes"/>
      <point x="561" y="73"/>
      <point x="568" y="108"/>
    </contour>
  </outline>
</glyph>
<glyph name="guilsinglleft" format="1">
  <advance width="212"/>
  <unicode hex="2039"/>
  <outline>
    <contour>
      <point x="33" y="140" type="line"/>
      <point x="33" y="333" type="line"/>
      <point x="173" y="434" type="line"/>
      <point x="173" y="269" type="line"/>
      <point x="114" y="235" type="line"/>
      <point x="173" y="204" type="line"/>
      <point x="173" y="41" type="line"/>
    </contour>
  </outline>
</glyph>
<glyph name="guilsinglright" format="1">
  <advance width="212"/>
  <unicode hex="203A"/>
  <outline>
    <contour>
      <point x="178" y="140" type="line"/>
      <point x="37" y="41" type="line"/>
      <point x="37" y="204" type="line"/>
      <point x="97" y="235" type="line"/>
      <point x="37" y="269" type="line"/>
      <point x="37" y="434" type="line"/>
      <point x="178" y="333" type="line"/>
    </contour>
  </outline>
</glyph>
<glyph name="fraction" format="1">
  <advance width="392"/>
  <unicode hex="2044"/>
  <outline>
    <contour>
      <point x="445" y="730" type="line"/>
      <point x="122" y="0" type="line"/>
      <point x="-53" y="0" type="line"/>
      <point x="270" y="730" type="line"/>
    </contour>
  </outline>
</glyph>
<glyph name="Euro" format="1">
  <advance width="479"/>
  <unicode hex="20AC"/>
  <outline>
    <contour>
      <point x="471" y="650" type="curve"/>
      <point x="378" y="534" type="line"/>
      <point x="359" y="566"/>
      <point x="337" y="581"/>
      <point x="311" y="581" type="curve" smooth="yes"/>
      <point x="277" y="581"/>
      <point x="264" y="539"/>
      <point x="266" y="443" type="curve"/>
      <point x="377" y="443" type="line"/>
      <point x="377" y="400" type="line"/>
      <point x="263" y="400" type="line"/>
      <point x="263" y="380"/>
      <point x="263" y="344"/>
      <point x="263" y="325" type="curve"/>
      <point x="377" y="325" type="line"/>
      <point x="377" y="282" type="line"/>
      <point x="266" y="282" type="line"/>
      <point x="267" y="177"/>
      <point x="284" y="138"/>
      <point x="320" y="138" type="curve" smooth="yes"/>
      <point x="352" y="138"/>
      <point x="370" y="165"/>
      <point x="387" y="195" type="curve"/>
      <point x="478" y="90" type="line"/>
      <point x="432" y="25"/>
      <point x="385" y="-12"/>
      <point x="301" y="-12" type="curve" smooth="yes"/>
      <point x="171" y="-12"/>
      <point x="94" y="117"/>
      <point x="78" y="282" type="curve"/>
      <point x="9" y="282" type="line"/>
      <point x="9" y="325" type="line"/>
      <point x="74" y="325" type="line"/>
      <point x="73" y="343"/>
      <point x="71" y="382"/>
      <point x="74" y="400" type="curve"/>
      <point x="9" y="400" type="line"/>
      <point x="9" y="443" type="line"/>
      <point x="78" y="443" type="line"/>
      <point x="97" y="606"/>
      <point x="167" y="742"/>
      <point x="308" y="742" type="curve" smooth="yes"/>
      <point x="373" y="742"/>
      <point x="439" y="705"/>
    </contour>
  </outline>
</glyph>
<glyph name="trademark" format="1">
  <advance width="890"/>
  <unicode hex="2122"/>
  <outline>
    <contour>
      <point x="863" y="292" type="line"/>
      <point x="717" y="292" type="line"/>
      <point x="717" y="506" type="line"/>
      <point x="649" y="378" type="line"/>
      <point x="582" y="378" type="line"/>
      <point x="513" y="506" type="line"/>
      <point x="513" y="292" type="line"/>
      <point x="375" y="292" type="line"/>
      <point x="375" y="730" type="line"/>
      <point x="517" y="730" type="line"/>
      <point x="617" y="555" type="line"/>
      <point x="709" y="730" type="line"/>
      <point x="863" y="730" type="line"/>
    </contour>
    <contour>
      <point x="326" y="618" type="line"/>
      <point x="239" y="618" type="line"/>
      <point x="239" y="292" type="line"/>
      <point x="99" y="292" type="line"/>
      <point x="99" y="618" type="line"/>
      <point x="12" y="618" type="line"/>
      <point x="12" y="730" type="line"/>
      <point x="326" y="730" type="line"/>
    </contour>
  </outline>
</glyph>
<glyph name="minus" format="1">
  <advance width="432"/>
  <unicode hex="2212"/>
  <outline>
    <contour>
      <point x="408" y="196" type="line"/>
      <point x="24" y="196" type="line"/>
      <point x="24" y="402" type="line"/>
      <point x="408" y="402" type="line"/>
    </contour>
  </outline>
</glyph>
<glyph name="radical" format="1">
  <advance width="508"/>
  <unicode hex="221A"/>
  <outline>
    <contour>
      <point x="512" y="730" type="line"/>
      <point x="325" y="0" type="line"/>
      <point x="139" y="0" type="line"/>
      <point x="8" y="432" type="line"/>
      <point x="185" y="432" type="line"/>
      <point x="224" y="253" type="line"/>
      <point x="223" y="248"/>
      <point x="230" y="213"/>
      <point x="230" y="213" type="curve"/>
      <point x="230" y="213"/>
      <point x="235" y="245"/>
      <point x="237" y="255" type="curve" smooth="yes"/>
      <point x="337" y="730" type="line"/>
    </contour>
  </outline>
</glyph>
<glyph name="f_f_i" format="1">
  <advance width="814"/>
  <unicode hex="FB03"/>
  <outline>
    <contour>
      <point x="788" y="511" type="line"/>
      <point x="612" y="511" type="line"/>
      <point x="612" y="666" type="line"/>
      <point x="788" y="666" type="line"/>
    </contour>
    <contour>
      <point x="575" y="330" type="line"/>
      <point x="522" y="330" type="line"/>
      <point x="522" y="0" type="line"/>
      <point x="348" y="0" type="line"/>
      <point x="348" y="330" type="line"/>
      <point x="303" y="330" type="line"/>
      <point x="303" y="461" type="line"/>
      <point x="348" y="461" type="line"/>
      <point x="348" y="579" type="line" smooth="yes"/>
      <point x="348" y="667"/>
      <point x="387" y="732"/>
      <point x="503" y="732" type="curve" smooth="yes"/>
      <point x="545" y="732"/>
      <point x="561" y="729"/>
      <point x="574" y="726" type="curve"/>
      <point x="574" y="601" type="line"/>
      <point x="570" y="602"/>
      <point x="566" y="602"/>
      <point x="561" y="602" type="curve" smooth="yes"/>
      <point x="529" y="602"/>
      <point x="522" y="582"/>
      <point x="522" y="552" type="curve" smooth="yes"/>
      <point x="522" y="461" type="line"/>
      <point x="575" y="461" type="line"/>
    </contour>
    <contour>
      <point x="282" y="330" type="line"/>
      <point x="229" y="330" type="line"/>
      <point x="229" y="0" type="line"/>
      <point x="55" y="0" type="line"/>
      <point x="55" y="330" type="line"/>
      <point x="10" y="330" type="line"/>
      <point x="10" y="461" type="line"/>
      <point x="55" y="461" type="line"/>
      <point x="55" y="579" type="line" smooth="yes"/>
      <point x="55" y="667"/>
      <point x="94" y="732"/>
      <point x="210" y="732" type="curve" smooth="yes"/>
      <point x="252" y="732"/>
      <point x="268" y="729"/>
      <point x="281" y="726" type="curve"/>
      <point x="281" y="601" type="line"/>
      <point x="277" y="602"/>
      <point x="273" y="602"/>
      <point x="268" y="602" type="curve" smooth="yes"/>
      <point x="236" y="602"/>
      <point x="229" y="582"/>
      <point x="229" y="552" type="curve" smooth="yes"/>
      <point x="229" y="461" type="line"/>
      <point x="282" y="461" type="line"/>
    </contour>
    <contour>
      <point x="787" y="0" type="line"/>
      <point x="613" y="0" type="line"/>
      <point x="613" y="461" type="line"/>
      <point x="787" y="461" type="line"/>
    </contour>
  </outline>
</glyph>
<glyph name="bullet" format="1">
  <advance width="590"/>
  <outline>
    <contour>
      <point x="539" y="380" type="curve" smooth="yes"/>
      <point x="539" y="242"/>
      <point x="433" y="136"/>
      <point x="295" y="136" type="curve" smooth="yes"/>
      <point x="157" y="136"/>
      <point x="51" y="242"/>
      <point x="51" y="380" type="curve" smooth="yes"/>
      <point x="51" y="518"/>
      <point x="157" y="624"/>
      <point x="295" y="624" type="curve" smooth="yes"/>
      <point x="433" y="624"/>
      <point x="539" y="518"/>
    </contour>
  </outline>
</glyph>
<glyph name="f_l" format="1">
  <advance width="521"/>
  <outline>
    <contour>
      <point x="282" y="330" type="line"/>
      <point x="229" y="330" type="line"/>
      <point x="229" y="0" type="line"/>
      <point x="55" y="0" type="line"/>
      <point x="55" y="330" type="line"/>
      <point x="10" y="330" type="line"/>
      <point x="10" y="461" type="line"/>
      <point x="55" y="461" type="line"/>
      <point x="55" y="579" type="line" smooth="yes"/>
      <point x="55" y="667"/>
      <point x="94" y="732"/>
      <point x="210" y="732" type="curve" smooth="yes"/>
      <point x="252" y="732"/>
      <point x="268" y="729"/>
      <point x="281" y="726" type="curve"/>
      <point x="281" y="601" type="line"/>
      <point x="277" y="602"/>
      <point x="273" y="602"/>
      <point x="268" y="602" type="curve" smooth="yes"/>
      <point x="236" y="602"/>
      <point x="229" y="582"/>
      <point x="229" y="552" type="curve" smooth="yes"/>
      <point x="229" y="461" type="line"/>
      <point x="282" y="461" type="line"/>
    </contour>
    <contour>
      <point x="494" y="0" type="line"/>
      <point x="320" y="0" type="line"/>
      <point x="320" y="730" type="line"/>
      <point x="494" y="730" type="line"/>
    </contour>
  </outline>
</glyph>
<glyph name="macron" format="1">
  <advance width="450"/>
  <outline>
    <contour>
      <point x="80" y="508" type="line"/>
      <point x="80" y="614" type="line"/>
      <point x="369" y="614" type="line"/>
      <point x="369" y="508" type="line"/>
    </contour>
  </outline>
</glyph>
<glyph name="onesuperior" format="1">
  <advance width="255"/>
  <outline>
    <contour>
      <point x="205" y="327" type="line"/>
      <point x="74" y="327" type="line"/>
      <point x="74" y="591" type="line"/>
      <point x="63" y="582"/>
      <point x="40" y="572"/>
      <point x="27" y="570" type="curve"/>
      <point x="27" y="664" type="line"/>
      <point x="54" y="670"/>
      <point x="84" y="695"/>
      <point x="92" y="729" type="curve"/>
      <point x="205" y="729" type="line"/>
    </contour>
  </outline>
</glyph>
<glyph name="threesuperior" format="1">
  <advance width="291"/>
  <outline>
    <contour>
      <point x="266" y="462" type="curve" smooth="yes"/>
      <point x="266" y="393"/>
      <point x="227" y="323"/>
      <point x="142" y="323" type="curve" smooth="yes"/>
      <point x="91" y="323"/>
      <point x="45" y="349"/>
      <point x="27" y="386" type="curve"/>
      <point x="100" y="467" type="line"/>
      <point x="107" y="447"/>
      <point x="119" y="430"/>
      <point x="135" y="430" type="curve" smooth="yes"/>
      <point x="148" y="430"/>
      <point x="155" y="440"/>
      <point x="155" y="464" type="curve" smooth="yes"/>
      <point x="155" y="491"/>
      <point x="147" y="499"/>
      <point x="127" y="499" type="curve" smooth="yes"/>
      <point x="110" y="499" type="line"/>
      <point x="110" y="575" type="line"/>
      <point x="114" y="575" type="line" smooth="yes"/>
      <point x="135" y="575"/>
      <point x="150" y="591"/>
      <point x="150" y="620" type="curve" smooth="yes"/>
      <point x="150" y="628"/>
      <point x="148" y="640"/>
      <point x="137" y="640" type="curve" smooth="yes"/>
      <point x="124" y="640"/>
      <point x="115" y="618"/>
      <point x="116" y="605" type="curve"/>
      <point x="29" y="654" type="line"/>
      <point x="37" y="706"/>
      <point x="80" y="740"/>
      <point x="143" y="740" type="curve" smooth="yes"/>
      <point x="228" y="740"/>
      <point x="260" y="678"/>
      <point x="260" y="632" type="curve" smooth="yes"/>
      <point x="260" y="592"/>
      <point x="243" y="565"/>
      <point x="221" y="549" type="curve"/>
      <point x="245" y="536"/>
      <point x="266" y="502"/>
    </contour>
  </outline>
</glyph>
